<?xml version="1.0" encoding="UTF-8" standalone="no"?>
<!-- Created with Inkscape (http://www.inkscape.org/) -->

<svg
   xmlns:dc="http://purl.org/dc/elements/1.1/"
   xmlns:cc="http://creativecommons.org/ns#"
   xmlns:rdf="http://www.w3.org/1999/02/22-rdf-syntax-ns#"
   xmlns:svg="http://www.w3.org/2000/svg"
   xmlns="http://www.w3.org/2000/svg"
   xmlns:sodipodi="http://sodipodi.sourceforge.net/DTD/sodipodi-0.dtd"
   xmlns:inkscape="http://www.inkscape.org/namespaces/inkscape"
   version="1.1"
   id="svg2"
   inkscape:version="0.91+devel r14647 custom"
   xml:space="preserve"
   width="764.8858"
   height="63.401333"
   viewBox="0 0 764.88581 63.401333"
   sodipodi:docname="rwth_acs_combined.svg"><metadata
     id="metadata8"><rdf:RDF><cc:Work
         rdf:about=""><dc:format>image/svg+xml</dc:format><dc:type
           rdf:resource="http://purl.org/dc/dcmitype/StillImage" /><dc:title></dc:title></cc:Work></rdf:RDF></metadata><defs
     id="defs6"><clipPath
       clipPathUnits="userSpaceOnUse"
       id="clipPath22"><path
         d="M 0,0 H 318 V 48 H 0 Z"
         id="path20"
         inkscape:connector-curvature="0" /></clipPath></defs><sodipodi:namedview
     pagecolor="#ffffff"
     bordercolor="#666666"
     borderopacity="1"
     objecttolerance="10"
     gridtolerance="10"
     guidetolerance="10"
     inkscape:pageopacity="0"
     inkscape:pageshadow="2"
     inkscape:window-width="1440"
     inkscape:window-height="851"
     inkscape:document-units="px"
     id="namedview4"
     showgrid="false"
     inkscape:zoom="1.1892783"
     inkscape:cx="344.47688"
     inkscape:cy="-48.076868"
     inkscape:window-x="0"
     inkscape:window-y="23"
     inkscape:window-maximized="1"
     inkscape:current-layer="g10"
     fit-margin-top="0"
     fit-margin-left="0"
     fit-margin-right="0"
     fit-margin-bottom="0" /><g
     id="g10"
     inkscape:groupmode="layer"
     inkscape:label="rwth_acs_combined"
     transform="matrix(1.3333333,0,0,-1.3333333,341.40716,63.401469)"><g
       id="g12"><path
         d="m 261.312,20.438102 h 2.051 c 1.961,0 3.016,-0.996 3.016,-2.985 0,-2.324 -1.176,-3.23 -3.258,-3.23 h -1.809 z m -4.347,-18.344 h 4.347 v 9.113 h 2.321 c 1.75,0 2.508,-1.027 2.566,-2.718 l 0.121,-4.133 c 0.032,-0.844 0.121,-1.66 0.543,-2.262 h 4.707 v 0.18 c -0.816,0.422 -0.937,1.597 -0.965,3.863 -0.062,4.555 -0.515,6.187 -3.472,6.578 v 0.059 c 2.445,0.515 3.594,2.445 3.594,5.312 0,3.68 -2.176,5.551 -5.735,5.551 h -8.027 v -21.543"
         style="fill:#918f90;fill-opacity:1;fill-rule:nonzero;stroke:none"
         id="path26"
         inkscape:connector-curvature="0" /><path
         d="m 192.902,23.637102 v -15.027 c 0,-5.762 3.352,-6.942 6.879,-6.942 3.531,0 6.883,1.449 6.883,6.942 v 15.027 h -4.348 v -15.027 c 0,-2.141 -0.511,-3.743 -2.535,-3.743 -2.019,0 -2.531,1.602 -2.531,3.743 v 15.027 h -4.348"
         style="fill:#918f90;fill-opacity:1;fill-rule:nonzero;stroke:none"
         id="path28"
         inkscape:connector-curvature="0" /><path
         d="m 207.727,23.637102 v -21.543 h 3.984 v 15.086 h 0.059 l 5.312,-15.086 h 4.949 v 21.543 h -3.984 v -14.754 h -0.059 l -5.254,14.754 h -5.007"
         style="fill:#918f90;fill-opacity:1;fill-rule:nonzero;stroke:none"
         id="path30"
         inkscape:connector-curvature="0" /><path
         d="m 223.148,23.637102 h 4.344 v -21.543 h -4.344 z"
         style="fill:#918f90;fill-opacity:1;fill-rule:nonzero;stroke:none"
         id="path32"
         inkscape:connector-curvature="0" /><path
         d="m 227.789,23.637102 4.949,-21.543 h 5.582 l 4.95,21.543 h -4.497 l -3.199,-15.934 h -0.09 l -3.046,15.934 h -4.649"
         style="fill:#918f90;fill-opacity:1;fill-rule:nonzero;stroke:none"
         id="path34"
         inkscape:connector-curvature="0" /><path
         d="m 243.656,23.637102 v -21.543 H 256 v 3.559 h -7.996 v 5.793 h 7.242 v 3.562 h -7.242 v 5.07 h 7.691 v 3.559 h -12.039"
         style="fill:#918f90;fill-opacity:1;fill-rule:nonzero;stroke:none"
         id="path36"
         inkscape:connector-curvature="0" /><path
         d="m 271.086,8.821102 v -0.875 c 0,-3.985 1.934,-6.278 6.852,-6.278 4.707,0 7.48,2.055 7.48,6.61 0,2.625 -0.844,4.285 -4.102,5.703 l -3.351,1.449 c -1.84,0.785 -2.231,1.598 -2.231,2.926 0,1.269 0.512,2.507 2.473,2.507 1.66,0 2.355,-1.179 2.355,-3.199 h 4.165 v 0.602 c 0,4.137 -2.809,5.793 -6.668,5.793 -4.106,0 -6.672,-2.141 -6.672,-6.336 0,-3.59 1.781,-5.192 5.644,-6.516 2.867,-0.996 3.864,-1.722 3.864,-3.683 0,-1.809 -1.27,-2.657 -2.598,-2.657 -2.293,0 -2.863,1.297 -2.863,3.321 v 0.633 h -4.348"
         style="fill:#918f90;fill-opacity:1;fill-rule:nonzero;stroke:none"
         id="path38"
         inkscape:connector-curvature="0" /><path
         d="m 285.988,23.637102 h 4.344 v -21.543 h -4.344 z"
         style="fill:#918f90;fill-opacity:1;fill-rule:nonzero;stroke:none"
         id="path40"
         inkscape:connector-curvature="0" /><path
         d="m 312.902,23.637102 -3.019,-8.328 h -0.059 l -2.836,8.328 h -16.086 v -3.559 h 4.707 v -17.984 h 4.348 v 17.984 h 3.664 l 4.059,-9.507 v -8.477 h 4.347 v 8.477 l 5.582,13.066 h -4.707"
         style="fill:#918f90;fill-opacity:1;fill-rule:nonzero;stroke:none"
         id="path42"
         inkscape:connector-curvature="0" /><path
         d="m 154.73,25.598102 h -7.199 v 21.641 h 11.805 c 3.203,0 5.965,-2.071 6.867,-4.821 0.832,-2.547 0.121,-5.312 -1.762,-7.281 0.25,-0.676 0.497,-1.207 0.727,-1.816 0.523,-1.208 1,-2.411 1.523,-3.602 l 1.715,-4.121 h -7.301 c 0,-0.004 -0.062,0.172 -0.117,0.246 -0.289,0.641 -0.55,1.32 -0.843,1.961 l -1.754,4.164 c -0.7,1.684 -1.395,3.277 -2.09,4.957 0.867,0.027 1.519,-0.137 2.355,0.25 0.59,0.289 1.485,1.012 1.508,2.395 -0.023,0.683 -0.211,1.203 -0.664,1.742 -0.457,0.504 -1.113,0.875 -1.973,0.886 0,0 -2.797,0 -2.797,0 v -16.601"
         style="fill:#231f20;fill-opacity:1;fill-rule:nonzero;stroke:none"
         id="path44"
         inkscape:connector-curvature="0" /><path
         d="m 229.938,47.239102 v -21.641 h -7.2 v 8.824 h -5.043 v -8.824 c -1.304,0 -2.715,0.015 -4.019,0 h -3.18 v 16.633 h -5.035 v -16.633 h -7.203 v 16.633 h -5.078 v -16.633 h -7.414 c -1.293,3.121 -2.657,6.269 -3.922,9.375 -0.145,0.656 -0.289,1.308 -0.477,1.945 v -11.32 h -7.433 c -1.473,3.426 -2.887,6.781 -4.356,10.258 -0.508,1.203 -0.926,2.183 -1.453,3.437 l -0.074,0.164 -1.141,2.684 -1.64,3.836 c -0.141,0.433 -0.375,0.828 -0.52,1.262 h 7.414 c 1.524,-3.7 3.063,-7.36 4.66,-11 l 0.043,-0.09 c -0.058,0.422 -0.191,0.961 -0.262,1.367 v 6.457 c 0.016,1.031 0,2.207 0,3.266 h 7.43 c 0.094,-0.235 0.149,-0.364 0.219,-0.551 0.871,-2.047 1.699,-4.078 2.57,-6.11 l 1.946,-4.429 c -0.043,0.464 -0.145,0.914 -0.204,1.367 v 9.723 h 29.129 v -7.809 h 5.043 v 7.809 h 7.2"
         style="fill:#231f20;fill-opacity:1;fill-rule:nonzero;stroke:none"
         id="path46"
         inkscape:connector-curvature="0" /><path
         d="m 255.641,47.242102 h -5.395 l -4.516,-17.058 -4.515,17.058 h -5.399 l -5.726,-21.644 h 4.547 l 1,4.578 h 5.761 l 0.997,-4.578 h 6.667 l 1,4.578 h 5.762 l 1,-4.578 h 4.547 z m -19.246,-13.488 2.089,9.727 h 0.063 l 2.09,-9.727 z m 14.425,0 2.094,9.727 h 0.059 l 2.093,-9.727 h -4.246"
         style="fill:#918f90;fill-opacity:1;fill-rule:nonzero;stroke:none"
         id="path48"
         inkscape:connector-curvature="0" /><path
         d="m 274.371,39.856102 c 0,3.136 -0.453,7.695 -6.668,7.695 -6.519,0 -7.336,-4.648 -7.336,-11.195 0,-6.547 0.817,-11.196 7.336,-11.196 5.703,0 6.848,4.016 6.848,8.661 h -4.344 c 0,-4.645 -1.148,-5.461 -2.715,-5.461 -1.871,0 -2.777,1.175 -2.777,7.695 0,6.094 0.512,8.297 2.715,8.297 1.961,0 2.597,-1.36 2.597,-4.496 h 4.344"
         style="fill:#918f90;fill-opacity:1;fill-rule:nonzero;stroke:none"
         id="path50"
         inkscape:connector-curvature="0" /><path
         d="m 275.41,25.598102 h 4.363 v 9.609 h 5.094 v -9.609 h 4.363 v 21.641 h -4.363 v -8.274 h -5.094 v 8.274 h -4.363 v -21.641"
         style="fill:#918f90;fill-opacity:1;fill-rule:nonzero;stroke:none"
         id="path52"
         inkscape:connector-curvature="0" /><path
         d="m 290.176,47.242102 v -21.644 h 12.402 v 3.578 h -8.035 v 5.82 h 7.277 v 3.578 h -7.277 v 5.09 h 7.73 v 3.578 h -12.097"
         style="fill:#918f90;fill-opacity:1;fill-rule:nonzero;stroke:none"
         id="path54"
         inkscape:connector-curvature="0" /><path
         d="m 303.227,47.239102 v -21.641 h 4 v 15.156 h 0.058 l 5.336,-15.156 h 4.969 v 21.641 h -4 v -14.821 h -0.059 l -5.277,14.821 h -5.027"
         style="fill:#918f90;fill-opacity:1;fill-rule:nonzero;stroke:none"
         id="path56"
         inkscape:connector-curvature="0" /><path
         d="m 132.859,47.270102 h 1 v -45.355 h -1 z"
         style="fill:#231f20;fill-opacity:1;fill-rule:nonzero;stroke:none"
         id="path58"
         inkscape:connector-curvature="0" /><path
         d="m 41.984,47.266102 h 35.23 v -5.246 h -35.23 z"
         style="fill:#ef2f2c;fill-opacity:1;fill-rule:nonzero;stroke:none"
         id="path60"
         inkscape:connector-curvature="0" /><path
         d="m 41.984,35.649102 h 35.23 v -5.246 h -35.23 z"
         style="fill:#ef2f2c;fill-opacity:1;fill-rule:nonzero;stroke:none"
         id="path62"
         inkscape:connector-curvature="0" /><path
         d="m 41.984,24.031102 h 35.23 v -5.246 h -35.23 z"
         style="fill:#ef2f2c;fill-opacity:1;fill-rule:nonzero;stroke:none"
         id="path64"
         inkscape:connector-curvature="0" /><path
         d="m 83.957,47.266102 h 35.227 v -5.246 H 83.957 Z"
         style="fill:#ef2f2c;fill-opacity:1;fill-rule:nonzero;stroke:none"
         id="path66"
         inkscape:connector-curvature="0" /><path
         d="m 83.957,35.649102 h 35.227 v -5.246 H 83.957 Z"
         style="fill:#ef2f2c;fill-opacity:1;fill-rule:nonzero;stroke:none"
         id="path68"
         inkscape:connector-curvature="0" /><path
         d="m 0.012,47.266102 h 35.227 v -28.48 H 0.012 Z"
         style="fill:#ef2f2c;fill-opacity:1;fill-rule:nonzero;stroke:none"
         id="path70"
         inkscape:connector-curvature="0" /><path
         d="m 0,9.254102 v -7.359 h 4.215 v 1.218 H 1.484 v 1.977 h 2.473 v 1.215 H 1.484 v 1.734 h 2.629 v 1.215 z m 5.145,-7.359 h 1.359 v 1.609 H 5.145 Z m 2.214,2.14 c 0.051,-0.472 0.168,-0.875 0.34,-1.211 0.176,-0.335 0.43,-0.601 0.758,-0.789 0.328,-0.191 0.773,-0.285 1.328,-0.285 0.559,0 1,0.094 1.332,0.285 0.328,0.188 0.582,0.454 0.754,0.789 0.18,0.336 0.289,0.739 0.344,1.211 0.051,0.469 0.074,0.985 0.074,1.539 0,0.559 -0.023,1.071 -0.074,1.543 -0.055,0.469 -0.164,0.872 -0.344,1.211 -0.172,0.336 -0.426,0.598 -0.754,0.785 -0.332,0.192 -0.773,0.286 -1.332,0.286 -0.555,0 -1,-0.094 -1.328,-0.286 -0.328,-0.187 -0.582,-0.449 -0.758,-0.785 -0.172,-0.339 -0.289,-0.742 -0.34,-1.211 -0.05,-0.472 -0.078,-0.984 -0.078,-1.543 0,-0.554 0.028,-1.07 0.078,-1.539 m 1.442,2.797 c 0.027,0.344 0.074,0.625 0.144,0.844 0.075,0.219 0.176,0.379 0.313,0.48 0.133,0.098 0.308,0.149 0.527,0.149 0.223,0 0.399,-0.051 0.531,-0.149 0.137,-0.101 0.239,-0.261 0.313,-0.48 0.07,-0.219 0.117,-0.5 0.141,-0.844 0.027,-0.343 0.039,-0.761 0.039,-1.258 0,-0.496 -0.012,-0.914 -0.039,-1.261 -0.024,-0.348 -0.071,-0.629 -0.141,-0.844 -0.074,-0.219 -0.176,-0.375 -0.313,-0.477 -0.132,-0.097 -0.308,-0.148 -0.531,-0.148 -0.219,0 -0.394,0.051 -0.527,0.148 -0.137,0.102 -0.238,0.258 -0.313,0.477 -0.07,0.215 -0.117,0.496 -0.144,0.844 -0.024,0.347 -0.035,0.765 -0.035,1.261 0,0.497 0.011,0.915 0.035,1.258 m 4.398,2.422 v -7.359 h 1.36 v 5.152 h 0.019 l 1.813,-5.152 h 1.691 v 7.359 h -1.359 v -5.039 h -0.02 l -1.797,5.039 z m 8.281,0 v -7.359 h 4.215 v 1.218 h -2.73 v 1.977 h 2.473 v 1.215 h -2.473 v 1.734 h 2.629 v 1.215 z m 4.95,-7.359 h 1.422 v 3.679 c 0,0.61 0.253,0.918 0.753,0.918 0.211,0 0.368,-0.058 0.465,-0.171 0.094,-0.114 0.145,-0.313 0.145,-0.602 v -3.824 h 1.422 v 4.113 c 0,0.555 -0.125,0.957 -0.367,1.207 -0.243,0.246 -0.594,0.371 -1.047,0.371 -0.309,0 -0.582,-0.066 -0.825,-0.191 -0.238,-0.129 -0.433,-0.328 -0.586,-0.606 h -0.023 v 0.649 H 26.43 Z m 9.226,2.558 v 0.317 c 0,0.426 -0.031,0.812 -0.086,1.16 -0.054,0.348 -0.156,0.644 -0.308,0.887 -0.153,0.242 -0.36,0.433 -0.621,0.566 -0.266,0.133 -0.606,0.203 -1.016,0.203 -0.48,0 -0.867,-0.082 -1.156,-0.238 -0.289,-0.16 -0.508,-0.371 -0.664,-0.641 -0.153,-0.265 -0.258,-0.574 -0.309,-0.918 -0.051,-0.34 -0.078,-0.699 -0.078,-1.07 0,-0.344 0.016,-0.691 0.047,-1.047 0.031,-0.351 0.117,-0.672 0.254,-0.957 0.136,-0.285 0.347,-0.516 0.636,-0.695 0.29,-0.18 0.692,-0.27 1.207,-0.27 0.68,0 1.176,0.176 1.493,0.52 0.316,0.347 0.488,0.843 0.515,1.492 h -1.277 c -0.039,-0.352 -0.117,-0.613 -0.227,-0.785 -0.109,-0.172 -0.285,-0.258 -0.527,-0.258 -0.129,0 -0.238,0.039 -0.328,0.109 -0.09,0.075 -0.16,0.168 -0.215,0.289 -0.055,0.122 -0.094,0.258 -0.117,0.411 -0.027,0.156 -0.039,0.316 -0.039,0.48 v 0.445 z m -2.816,0.844 v 0.215 c 0,0.133 0.012,0.262 0.039,0.394 0.023,0.129 0.062,0.247 0.117,0.352 0.055,0.109 0.129,0.195 0.223,0.258 0.09,0.066 0.211,0.101 0.351,0.101 0.149,0 0.266,-0.031 0.36,-0.089 0.09,-0.059 0.164,-0.145 0.215,-0.258 0.05,-0.114 0.085,-0.25 0.109,-0.41 0.019,-0.164 0.031,-0.352 0.039,-0.563 z m 3.594,-3.402 h 1.421 v 3.328 c 0,0.187 0.032,0.344 0.09,0.473 0.063,0.125 0.145,0.226 0.25,0.308 0.102,0.078 0.215,0.133 0.34,0.168 0.121,0.035 0.246,0.051 0.371,0.051 0.074,0 0.149,0 0.223,-0.004 0.07,-0.004 0.144,-0.008 0.219,-0.016 v 1.36 c -0.039,0.008 -0.082,0.011 -0.129,0.015 -0.043,0.004 -0.086,0.008 -0.129,0.008 -0.293,0 -0.543,-0.082 -0.75,-0.246 -0.207,-0.16 -0.383,-0.375 -0.528,-0.641 h -0.019 v 0.739 h -1.359 z m 4.836,3.539 c 0.015,0.262 0.05,0.465 0.109,0.621 0.055,0.152 0.129,0.266 0.226,0.332 0.094,0.07 0.223,0.105 0.379,0.105 0.282,0 0.477,-0.14 0.582,-0.421 0.11,-0.282 0.161,-0.762 0.161,-1.434 0,-0.234 -0.012,-0.449 -0.036,-0.645 -0.023,-0.195 -0.066,-0.363 -0.125,-0.5 -0.058,-0.136 -0.136,-0.246 -0.234,-0.324 -0.102,-0.078 -0.227,-0.117 -0.379,-0.117 -0.148,0 -0.273,0.039 -0.363,0.117 -0.094,0.078 -0.164,0.184 -0.219,0.321 -0.051,0.132 -0.086,0.285 -0.101,0.457 -0.016,0.171 -0.028,0.355 -0.028,0.546 0,0.371 0.012,0.684 0.028,0.942 m 1.457,2.004 v -0.617 h -0.02 c -0.137,0.289 -0.312,0.488 -0.527,0.597 -0.211,0.11 -0.418,0.168 -0.618,0.168 -0.382,0 -0.691,-0.086 -0.921,-0.258 -0.231,-0.172 -0.407,-0.394 -0.528,-0.668 -0.117,-0.269 -0.199,-0.574 -0.234,-0.91 -0.039,-0.336 -0.059,-0.668 -0.059,-0.988 0,-1.012 0.145,-1.731 0.43,-2.16 0.285,-0.43 0.707,-0.645 1.273,-0.645 0.223,0 0.442,0.063 0.653,0.184 0.211,0.125 0.386,0.289 0.531,0.496 h 0.02 v -0.731 c 0,-0.289 -0.059,-0.527 -0.176,-0.718 -0.117,-0.188 -0.317,-0.282 -0.606,-0.282 -0.09,0 -0.175,0.016 -0.254,0.043 -0.078,0.028 -0.152,0.063 -0.222,0.11 -0.141,0.105 -0.215,0.246 -0.215,0.426 h -1.359 c 0,-0.477 0.164,-0.84 0.488,-1.098 0.328,-0.258 0.793,-0.387 1.398,-0.387 0.828,0 1.422,0.176 1.778,0.531 0.351,0.352 0.531,0.899 0.531,1.641 v 5.266 z m 2.39,-7.356 h 0.578 c 0.332,0 0.602,0.024 0.821,0.071 0.214,0.05 0.398,0.152 0.554,0.304 0.157,0.156 0.309,0.43 0.465,0.824 0.153,0.395 0.25,0.723 0.293,0.985 l 1.34,5.172 h -1.422 l -0.719,-3.832 h -0.023 l -0.824,3.832 h -1.485 l 1.559,-5.543 c -0.024,-0.246 -0.09,-0.438 -0.203,-0.574 -0.113,-0.141 -0.301,-0.208 -0.563,-0.208 -0.121,0 -0.246,0.008 -0.371,0.032 z m 6.985,1.813 h 1.484 v 3.113 h 0.785 c 0.305,0 0.524,-0.082 0.652,-0.246 0.129,-0.168 0.2,-0.395 0.215,-0.68 l 0.039,-1.414 c 0.008,-0.144 0.02,-0.281 0.043,-0.418 0.02,-0.133 0.067,-0.25 0.145,-0.355 h 1.625 v 0.062 c -0.137,0.074 -0.223,0.215 -0.262,0.422 -0.039,0.207 -0.058,0.504 -0.066,0.899 -0.008,0.39 -0.028,0.718 -0.055,0.988 -0.031,0.269 -0.09,0.488 -0.172,0.664 -0.082,0.176 -0.199,0.309 -0.351,0.402 -0.153,0.094 -0.352,0.157 -0.606,0.192 v 0.019 c 0.418,0.09 0.727,0.289 0.926,0.602 0.199,0.316 0.301,0.718 0.301,1.215 0,0.636 -0.172,1.113 -0.52,1.425 -0.34,0.313 -0.82,0.469 -1.441,0.469 h -2.742 z m 1.484,6.265 h 0.703 c 0.688,0 1.031,-0.339 1.031,-1.019 0,-0.399 -0.097,-0.68 -0.289,-0.852 -0.191,-0.168 -0.469,-0.25 -0.824,-0.25 h -0.621 z m 8.207,-3.707 v 0.317 c 0,0.426 -0.027,0.812 -0.082,1.16 -0.055,0.348 -0.156,0.644 -0.309,0.887 -0.152,0.242 -0.359,0.433 -0.625,0.566 -0.261,0.133 -0.601,0.203 -1.015,0.203 -0.481,0 -0.864,-0.082 -1.153,-0.238 -0.289,-0.16 -0.511,-0.371 -0.664,-0.641 -0.156,-0.265 -0.257,-0.574 -0.308,-0.918 -0.051,-0.34 -0.078,-0.699 -0.078,-1.07 0,-0.344 0.015,-0.691 0.046,-1.047 0.032,-0.351 0.114,-0.672 0.25,-0.957 0.137,-0.285 0.352,-0.516 0.641,-0.695 0.289,-0.18 0.692,-0.27 1.207,-0.27 0.68,0 1.176,0.176 1.492,0.52 0.317,0.347 0.489,0.843 0.516,1.492 h -1.277 c -0.043,-0.352 -0.118,-0.613 -0.227,-0.785 -0.109,-0.172 -0.285,-0.258 -0.527,-0.258 -0.129,0 -0.239,0.039 -0.328,0.109 -0.09,0.075 -0.161,0.168 -0.215,0.289 -0.055,0.122 -0.098,0.258 -0.121,0.411 -0.024,0.156 -0.036,0.316 -0.036,0.48 v 0.445 z m -2.813,0.844 v 0.215 c 0,0.133 0.012,0.262 0.036,0.394 0.023,0.129 0.066,0.247 0.121,0.352 0.054,0.109 0.125,0.195 0.218,0.258 0.094,0.066 0.211,0.101 0.356,0.101 0.144,0 0.262,-0.031 0.355,-0.089 0.094,-0.059 0.164,-0.145 0.219,-0.258 0.051,-0.114 0.086,-0.25 0.106,-0.41 0.019,-0.164 0.035,-0.352 0.043,-0.563 z m 3.36,-1.586 v -0.199 c 0,-0.266 0.031,-0.508 0.094,-0.727 0.058,-0.214 0.168,-0.398 0.324,-0.554 0.152,-0.157 0.359,-0.274 0.621,-0.356 0.262,-0.082 0.598,-0.125 1,-0.125 0.297,0 0.57,0.039 0.824,0.11 0.254,0.07 0.473,0.179 0.656,0.324 0.18,0.144 0.325,0.328 0.426,0.547 0.106,0.218 0.156,0.472 0.156,0.761 0,0.418 -0.093,0.75 -0.277,0.997 -0.187,0.242 -0.504,0.441 -0.949,0.589 l -0.856,0.289 c -0.242,0.079 -0.402,0.168 -0.488,0.278 -0.086,0.113 -0.129,0.234 -0.129,0.371 0,0.199 0.067,0.351 0.199,0.449 0.137,0.102 0.289,0.152 0.469,0.152 0.235,0 0.399,-0.07 0.492,-0.203 0.09,-0.133 0.137,-0.343 0.137,-0.633 h 1.277 v 0.227 c 0,0.5 -0.152,0.887 -0.461,1.164 -0.312,0.274 -0.789,0.414 -1.433,0.414 -0.363,0 -0.676,-0.047 -0.934,-0.137 -0.258,-0.089 -0.468,-0.207 -0.633,-0.359 -0.164,-0.152 -0.285,-0.328 -0.363,-0.531 -0.074,-0.203 -0.109,-0.418 -0.109,-0.645 0,-0.39 0.097,-0.711 0.297,-0.961 0.199,-0.254 0.496,-0.445 0.886,-0.586 l 1,-0.359 c 0.137,-0.055 0.258,-0.129 0.36,-0.223 0.105,-0.089 0.156,-0.226 0.156,-0.406 0,-0.219 -0.066,-0.383 -0.195,-0.496 -0.133,-0.109 -0.309,-0.164 -0.528,-0.164 -0.242,0 -0.425,0.074 -0.55,0.223 -0.129,0.148 -0.192,0.343 -0.192,0.582 v 0.187 z m 8.887,0.742 v 0.317 c 0,0.426 -0.028,0.812 -0.082,1.16 -0.055,0.348 -0.161,0.644 -0.309,0.887 -0.152,0.242 -0.359,0.433 -0.625,0.566 -0.266,0.133 -0.602,0.203 -1.016,0.203 -0.48,0 -0.863,-0.082 -1.152,-0.238 -0.289,-0.16 -0.512,-0.371 -0.664,-0.641 -0.156,-0.265 -0.258,-0.574 -0.313,-0.918 -0.05,-0.34 -0.074,-0.699 -0.074,-1.07 0,-0.344 0.016,-0.691 0.043,-1.047 0.031,-0.351 0.117,-0.672 0.254,-0.957 0.137,-0.285 0.352,-0.516 0.641,-0.695 0.289,-0.18 0.687,-0.27 1.207,-0.27 0.679,0 1.175,0.176 1.492,0.52 0.316,0.347 0.488,0.843 0.516,1.492 h -1.278 c -0.043,-0.352 -0.117,-0.613 -0.226,-0.785 -0.11,-0.172 -0.286,-0.258 -0.528,-0.258 -0.129,0 -0.242,0.039 -0.328,0.109 -0.09,0.075 -0.164,0.168 -0.219,0.289 -0.054,0.122 -0.093,0.258 -0.117,0.411 -0.023,0.156 -0.035,0.316 -0.035,0.48 v 0.445 z m -2.813,0.844 v 0.215 c 0,0.133 0.012,0.262 0.035,0.394 0.024,0.129 0.063,0.247 0.117,0.352 0.055,0.109 0.129,0.195 0.223,0.258 0.094,0.066 0.211,0.101 0.356,0.101 0.144,0 0.261,-0.031 0.355,-0.089 0.094,-0.059 0.164,-0.145 0.219,-0.258 0.051,-0.114 0.086,-0.25 0.105,-0.41 0.024,-0.164 0.035,-0.352 0.043,-0.563 z m 4.816,0.442 v 0.156 c 0,0.218 0.055,0.394 0.168,0.523 0.11,0.133 0.274,0.199 0.493,0.199 0.242,0 0.41,-0.062 0.511,-0.183 0.098,-0.121 0.149,-0.285 0.149,-0.5 0,-0.184 -0.039,-0.324 -0.125,-0.422 -0.082,-0.094 -0.231,-0.172 -0.442,-0.227 l -0.804,-0.214 c -0.246,-0.071 -0.457,-0.149 -0.633,-0.239 -0.176,-0.09 -0.32,-0.199 -0.434,-0.336 -0.113,-0.133 -0.199,-0.293 -0.254,-0.484 -0.054,-0.188 -0.078,-0.414 -0.078,-0.672 0,-0.187 0.024,-0.375 0.071,-0.562 0.046,-0.192 0.125,-0.36 0.226,-0.512 0.102,-0.149 0.238,-0.274 0.41,-0.371 0.172,-0.094 0.383,-0.145 0.629,-0.145 0.344,0 0.625,0.051 0.84,0.145 0.219,0.097 0.41,0.289 0.574,0.578 h 0.02 c 0.019,-0.098 0.043,-0.195 0.066,-0.293 0.024,-0.102 0.063,-0.195 0.11,-0.285 h 1.359 c -0.066,0.164 -0.113,0.32 -0.141,0.465 -0.023,0.144 -0.035,0.347 -0.035,0.609 v 2.914 c 0,0.25 -0.023,0.477 -0.074,0.688 -0.055,0.207 -0.152,0.386 -0.297,0.539 -0.144,0.152 -0.348,0.269 -0.613,0.351 -0.262,0.082 -0.606,0.125 -1.024,0.125 -0.269,0 -0.519,-0.031 -0.757,-0.09 -0.239,-0.058 -0.442,-0.156 -0.618,-0.289 -0.175,-0.133 -0.316,-0.312 -0.418,-0.531 -0.101,-0.219 -0.156,-0.488 -0.156,-0.801 v -0.136 z m 1.321,-2.165 c 0,-0.156 -0.028,-0.289 -0.082,-0.394 -0.055,-0.109 -0.125,-0.195 -0.211,-0.266 -0.086,-0.066 -0.18,-0.117 -0.285,-0.148 -0.102,-0.031 -0.203,-0.047 -0.297,-0.047 -0.192,0 -0.332,0.078 -0.414,0.227 -0.082,0.152 -0.121,0.335 -0.121,0.546 0,0.25 0.062,0.446 0.183,0.59 0.125,0.141 0.332,0.246 0.617,0.309 0.09,0.019 0.192,0.051 0.301,0.098 0.11,0.042 0.215,0.105 0.309,0.179 z m 2.347,-1.679 h 1.422 v 3.328 c 0,0.187 0.032,0.344 0.09,0.473 0.063,0.125 0.149,0.226 0.25,0.308 0.102,0.078 0.215,0.133 0.34,0.168 0.121,0.035 0.246,0.051 0.371,0.051 0.074,0 0.149,0 0.223,-0.004 0.07,-0.004 0.144,-0.008 0.218,-0.016 v 1.36 c -0.039,0.008 -0.082,0.011 -0.128,0.015 -0.043,0.004 -0.086,0.008 -0.129,0.008 -0.293,0 -0.543,-0.082 -0.75,-0.246 -0.207,-0.16 -0.383,-0.375 -0.528,-0.641 h -0.019 v 0.739 h -1.36 z m 7.551,3.547 c 0,0.66 -0.168,1.179 -0.5,1.566 -0.332,0.383 -0.828,0.578 -1.488,0.578 -0.328,0 -0.633,-0.047 -0.906,-0.137 -0.274,-0.089 -0.512,-0.246 -0.711,-0.468 -0.199,-0.223 -0.356,-0.52 -0.465,-0.895 -0.109,-0.375 -0.164,-0.847 -0.164,-1.418 0,-0.555 0.043,-1.023 0.133,-1.398 0.09,-0.375 0.222,-0.672 0.398,-0.895 0.176,-0.222 0.395,-0.383 0.66,-0.48 0.262,-0.094 0.574,-0.145 0.93,-0.145 0.758,0 1.297,0.199 1.625,0.59 0.324,0.391 0.488,0.949 0.488,1.68 H 83.09 c 0,-0.453 -0.055,-0.785 -0.164,-0.989 -0.11,-0.207 -0.285,-0.312 -0.528,-0.312 -0.156,0 -0.285,0.039 -0.386,0.109 -0.098,0.075 -0.176,0.188 -0.231,0.344 -0.054,0.16 -0.093,0.359 -0.113,0.606 -0.02,0.242 -0.031,0.535 -0.031,0.878 0,0.317 0.011,0.594 0.031,0.836 0.02,0.243 0.059,0.438 0.113,0.594 0.055,0.153 0.137,0.27 0.242,0.348 0.106,0.078 0.25,0.121 0.43,0.121 0.129,0 0.235,-0.035 0.324,-0.098 0.082,-0.066 0.149,-0.152 0.196,-0.258 0.043,-0.109 0.074,-0.226 0.089,-0.363 0.02,-0.133 0.028,-0.265 0.028,-0.394 z m 0.766,-3.547 h 1.422 v 3.679 c 0,0.61 0.25,0.918 0.754,0.918 0.211,0 0.363,-0.058 0.461,-0.171 0.097,-0.114 0.144,-0.313 0.144,-0.602 v -3.824 h 1.422 v 4.113 c 0,0.555 -0.121,0.957 -0.367,1.207 -0.242,0.246 -0.59,0.371 -1.043,0.371 -0.625,0 -1.074,-0.238 -1.352,-0.715 h -0.019 v 2.383 h -1.422 z m 12.187,4.875 c 0,0.269 -0.019,0.554 -0.054,0.859 -0.039,0.309 -0.133,0.594 -0.286,0.856 -0.148,0.265 -0.378,0.484 -0.683,0.656 -0.305,0.172 -0.723,0.258 -1.25,0.258 -0.559,0 -1,-0.094 -1.332,-0.286 -0.332,-0.187 -0.582,-0.449 -0.758,-0.785 -0.176,-0.339 -0.289,-0.742 -0.34,-1.211 -0.051,-0.472 -0.078,-0.984 -0.078,-1.543 0,-0.554 0.027,-1.07 0.078,-1.539 0.051,-0.472 0.164,-0.875 0.34,-1.211 0.176,-0.335 0.426,-0.601 0.758,-0.789 0.332,-0.191 0.773,-0.285 1.332,-0.285 0.484,0 0.883,0.082 1.187,0.239 0.305,0.156 0.543,0.371 0.711,0.644 0.168,0.27 0.285,0.586 0.344,0.941 0.063,0.36 0.094,0.735 0.094,1.133 h -1.481 c 0,-0.398 -0.027,-0.718 -0.074,-0.961 -0.047,-0.246 -0.113,-0.433 -0.195,-0.566 -0.082,-0.137 -0.18,-0.223 -0.297,-0.27 -0.109,-0.043 -0.234,-0.066 -0.363,-0.066 -0.16,0 -0.297,0.031 -0.418,0.098 -0.121,0.066 -0.219,0.191 -0.301,0.382 -0.078,0.188 -0.137,0.454 -0.172,0.797 -0.039,0.344 -0.059,0.793 -0.059,1.352 0,0.519 0.016,0.961 0.043,1.324 0.028,0.359 0.075,0.652 0.145,0.875 0.066,0.223 0.16,0.383 0.281,0.484 0.121,0.098 0.274,0.149 0.461,0.149 0.336,0 0.567,-0.121 0.695,-0.367 0.129,-0.242 0.188,-0.633 0.188,-1.168 z m 4.953,-2.317 v 0.317 c 0,0.426 -0.031,0.812 -0.085,1.16 -0.055,0.348 -0.157,0.644 -0.309,0.887 -0.149,0.242 -0.359,0.433 -0.625,0.566 -0.262,0.133 -0.602,0.203 -1.012,0.203 -0.484,0 -0.867,-0.082 -1.156,-0.238 -0.289,-0.16 -0.508,-0.371 -0.664,-0.641 -0.152,-0.265 -0.258,-0.574 -0.309,-0.918 -0.05,-0.34 -0.078,-0.699 -0.078,-1.07 0,-0.344 0.016,-0.691 0.047,-1.047 0.031,-0.351 0.113,-0.672 0.254,-0.957 0.137,-0.285 0.348,-0.516 0.637,-0.695 0.289,-0.18 0.691,-0.27 1.207,-0.27 0.679,0 1.179,0.176 1.492,0.52 0.316,0.347 0.488,0.843 0.516,1.492 h -1.278 c -0.039,-0.352 -0.117,-0.613 -0.226,-0.785 -0.11,-0.172 -0.286,-0.258 -0.524,-0.258 -0.133,0 -0.242,0.039 -0.332,0.109 -0.09,0.075 -0.16,0.168 -0.215,0.289 -0.054,0.122 -0.093,0.258 -0.121,0.411 -0.023,0.156 -0.035,0.316 -0.035,0.48 v 0.445 z m -2.816,0.844 v 0.215 c 0,0.133 0.012,0.262 0.035,0.394 0.028,0.129 0.067,0.247 0.121,0.352 0.055,0.109 0.129,0.195 0.219,0.258 0.094,0.066 0.215,0.101 0.359,0.101 0.141,0 0.262,-0.031 0.356,-0.089 0.09,-0.059 0.164,-0.145 0.215,-0.258 0.051,-0.114 0.086,-0.25 0.109,-0.41 0.02,-0.164 0.031,-0.352 0.039,-0.563 z m 3.594,-3.402 h 1.422 v 3.679 c 0,0.61 0.25,0.918 0.75,0.918 0.215,0 0.367,-0.058 0.465,-0.171 0.097,-0.114 0.144,-0.313 0.144,-0.602 v -3.824 h 1.422 v 4.113 c 0,0.555 -0.121,0.957 -0.367,1.207 -0.242,0.246 -0.59,0.371 -1.047,0.371 -0.309,0 -0.582,-0.066 -0.82,-0.191 -0.243,-0.129 -0.438,-0.328 -0.59,-0.606 h -0.02 v 0.649 h -1.359 z m 5.5,5.543 h -0.723 v -0.965 h 0.723 v -3.176 c 0,-0.281 0.019,-0.516 0.051,-0.699 0.035,-0.188 0.097,-0.336 0.191,-0.449 0.094,-0.114 0.227,-0.196 0.398,-0.243 0.172,-0.046 0.399,-0.074 0.68,-0.074 0.164,0 0.32,0.008 0.469,0.024 0.148,0.011 0.301,0.027 0.457,0.039 v 0.988 c -0.047,-0.004 -0.098,-0.012 -0.152,-0.012 -0.059,-0.004 -0.114,-0.008 -0.165,-0.008 -0.207,0 -0.343,0.047 -0.41,0.141 -0.066,0.094 -0.097,0.25 -0.097,0.469 v 3 h 0.824 v 0.965 h -0.824 v 1.59 h -1.422 z m 6.855,-2.985 v 0.317 c 0,0.426 -0.027,0.812 -0.082,1.16 -0.054,0.348 -0.156,0.644 -0.308,0.887 -0.149,0.242 -0.36,0.433 -0.621,0.566 -0.266,0.133 -0.606,0.203 -1.016,0.203 -0.481,0 -0.867,-0.082 -1.156,-0.238 -0.285,-0.16 -0.508,-0.371 -0.664,-0.641 -0.153,-0.265 -0.258,-0.574 -0.309,-0.918 -0.051,-0.34 -0.078,-0.699 -0.078,-1.07 0,-0.344 0.016,-0.691 0.047,-1.047 0.031,-0.351 0.113,-0.672 0.254,-0.957 0.136,-0.285 0.347,-0.516 0.636,-0.695 0.289,-0.18 0.692,-0.27 1.207,-0.27 0.68,0 1.18,0.176 1.497,0.52 0.312,0.347 0.484,0.843 0.511,1.492 h -1.277 c -0.039,-0.352 -0.117,-0.613 -0.227,-0.785 -0.109,-0.172 -0.285,-0.258 -0.523,-0.258 -0.133,0 -0.242,0.039 -0.332,0.109 -0.09,0.075 -0.16,0.168 -0.215,0.289 -0.055,0.122 -0.094,0.258 -0.121,0.411 -0.023,0.156 -0.035,0.316 -0.035,0.48 v 0.445 z m -2.812,0.844 v 0.215 c 0,0.133 0.012,0.262 0.035,0.394 0.027,0.129 0.066,0.247 0.121,0.352 0.055,0.109 0.129,0.195 0.219,0.258 0.094,0.066 0.215,0.101 0.359,0.101 0.141,0 0.262,-0.031 0.356,-0.089 0.093,-0.059 0.164,-0.145 0.214,-0.258 0.051,-0.114 0.086,-0.25 0.11,-0.41 0.019,-0.164 0.031,-0.352 0.039,-0.563 z m 3.594,-3.402 h 1.421 v 3.328 c 0,0.187 0.032,0.344 0.09,0.473 0.063,0.125 0.145,0.226 0.25,0.308 0.102,0.078 0.215,0.133 0.34,0.168 0.121,0.035 0.246,0.051 0.371,0.051 0.074,0 0.149,0 0.219,-0.004 0.074,-0.004 0.148,-0.008 0.223,-0.016 v 1.36 c -0.039,0.008 -0.082,0.011 -0.129,0.015 -0.043,0.004 -0.086,0.008 -0.129,0.008 -0.293,0 -0.547,-0.082 -0.75,-0.246 -0.207,-0.16 -0.383,-0.375 -0.528,-0.641 h -0.019 v 0.739 h -1.359 v -5.543"
         style="fill:#ef2f2c;fill-opacity:1;fill-rule:nonzero;stroke:none"
         id="path72"
         inkscape:connector-curvature="0" /><path
         inkscape:connector-curvature="0"
         id="path4792"
         style="fill:#231f20;fill-opacity:1;fill-rule:nonzero;stroke:none"
         d="m -14.141001,47.270102 h 1 v -45.355 h -1 z" /></g><g
       aria-label="ACS | Automation of Complex
    Power Systems"
       transform="scale(0.95489833,-1.0472319)"
       style="font-style:normal;font-weight:normal;font-size:19.70387459px;line-height:125%;font-family:sans-serif;text-align:center;letter-spacing:0px;word-spacing:0px;text-anchor:middle;fill:#a09f9f;fill-opacity:1;stroke:none;stroke-width:0.49259686px;stroke-linecap:butt;stroke-linejoin:miter;stroke-opacity:1"
       id="text4796"><path
         d="m -261.85841,-34.213091 1.77995,-5.014489 h 0.0383 l 1.72254,5.014489 z m 0.28709,-8.383001 -5.1676,13.665439 h 3.024 l 1.0718,-3.043144 h 5.11019 l 1.03352,3.043144 h 3.1197 l -5.11019,-13.665439 z"
         style="font-style:normal;font-variant:normal;font-weight:bold;font-stretch:normal;font-size:19.13927078px;font-family:'Helvetica Neue';-inkscape-font-specification:'Helvetica Neue Bold';letter-spacing:-0.71501422px;fill:#a09f9f;fill-opacity:1;stroke-width:0.49259686px"
         id="path4827" /><path
         d="m -243.78733,-38.002667 h 2.90917 q -0.13398,-1.186635 -0.65074,-2.10532 -0.51676,-0.918685 -1.32061,-1.531141 -0.78471,-0.631596 -1.79909,-0.956964 -0.99524,-0.325368 -2.12446,-0.325368 -1.56942,0 -2.83261,0.555039 -1.24405,0.555039 -2.10532,1.531142 -0.86127,0.976103 -1.32061,2.296712 -0.45934,1.301471 -0.45934,2.832613 0,1.492863 0.45934,2.794333 0.45934,1.282331 1.32061,2.239295 0.86127,0.956963 2.10532,1.512002 1.26319,0.5359 2.83261,0.5359 1.26319,0 2.31585,-0.382786 1.05266,-0.382785 1.83737,-1.110077 0.78471,-0.727293 1.2632,-1.760813 0.47848,-1.033521 0.59331,-2.315852 h -2.90917 q -0.17225,1.378027 -0.95696,2.220155 -0.76557,0.842128 -2.1436,0.842128 -1.01438,0 -1.72253,-0.382785 -0.70816,-0.401925 -1.14836,-1.05266 -0.4402,-0.650735 -0.65073,-1.454585 -0.1914,-0.822988 -0.1914,-1.684255 0,-0.899546 0.1914,-1.741674 0.21053,-0.842128 0.65073,-1.492863 0.4402,-0.669875 1.14836,-1.05266 0.70815,-0.401925 1.72253,-0.401925 0.55504,0 1.05266,0.191393 0.51676,0.172253 0.91869,0.497621 0.40192,0.325368 0.66987,0.765571 0.26795,0.421064 0.34451,0.937824 z"
         style="font-style:normal;font-variant:normal;font-weight:bold;font-stretch:normal;font-size:19.13927078px;font-family:'Helvetica Neue';-inkscape-font-specification:'Helvetica Neue Bold';letter-spacing:-0.71501422px;fill:#a09f9f;fill-opacity:1;stroke-width:0.49259686px"
         id="path4829" /><path
         d="m -237.39719,-33.46666 h -2.90917 q -0.0191,1.263192 0.45934,2.181877 0.47848,0.918685 1.28233,1.512002 0.82299,0.593318 1.87565,0.861268 1.0718,0.287089 2.20102,0.287089 1.39716,0 2.44982,-0.325368 1.0718,-0.325367 1.77996,-0.899546 0.72729,-0.593317 1.09094,-1.397166 0.36364,-0.80385 0.36364,-1.741674 0,-1.148356 -0.49762,-1.875649 -0.47848,-0.746431 -1.14836,-1.186634 -0.66987,-0.440204 -1.35888,-0.631596 -0.66988,-0.210532 -1.05266,-0.287089 -1.28234,-0.325368 -2.08618,-0.5359 -0.78471,-0.210532 -1.24406,-0.421064 -0.4402,-0.210532 -0.59331,-0.459342 -0.15312,-0.248811 -0.15312,-0.650736 0,-0.440203 0.19139,-0.727292 0.1914,-0.287089 0.47849,-0.478482 0.30622,-0.191392 0.66987,-0.267949 0.36365,-0.07656 0.72729,-0.07656 0.55504,0 1.01438,0.0957 0.47849,0.0957 0.84213,0.325367 0.36365,0.229672 0.57418,0.631596 0.22967,0.401925 0.26795,1.014382 h 2.90917 q 0,-1.186635 -0.45934,-2.009624 -0.44021,-0.842128 -1.20578,-1.378027 -0.76557,-0.5359 -1.76081,-0.765571 -0.9761,-0.248811 -2.0479,-0.248811 -0.91869,0 -1.83737,0.248811 -0.91869,0.24881 -1.64598,0.765571 -0.72729,0.51676 -1.18663,1.30147 -0.44021,0.765571 -0.44021,1.818231 0,0.937824 0.34451,1.607699 0.36365,0.650735 0.93782,1.090938 0.57418,0.440203 1.30147,0.727292 0.7273,0.26795 1.49287,0.459343 0.74643,0.210532 1.47372,0.382785 0.72729,0.172254 1.30147,0.401925 0.57418,0.229671 0.91869,0.574178 0.36364,0.344507 0.36364,0.899546 0,0.51676 -0.26795,0.861267 -0.26795,0.325368 -0.66987,0.51676 -0.40193,0.191393 -0.86127,0.26795 -0.45934,0.05742 -0.86127,0.05742 -0.59331,0 -1.14835,-0.133975 -0.55504,-0.153114 -0.97611,-0.440203 -0.40192,-0.306229 -0.65073,-0.78471 -0.24881,-0.478482 -0.24881,-1.167496 z"
         style="font-style:normal;font-variant:normal;font-weight:bold;font-stretch:normal;font-size:19.13927078px;font-family:'Helvetica Neue';-inkscape-font-specification:'Helvetica Neue Bold';letter-spacing:-0.71501422px;fill:#a09f9f;fill-opacity:1;stroke-width:0.49259686px"
         id="path4831" /><path
         d="m -223.00323,-43.974119 v 19.120131 h 1.30147 v -19.120131 z"
         style="font-size:19.13927078px;fill:#000000;stroke-width:0.49259686px"
         id="path4833" /><path
         d="m -212.52774,-34.576737 2.31586,-6.373378 h 0.0383 l 2.27757,6.373378 z m 1.35889,-8.019355 -5.32071,13.665439 h 1.8565 l 1.53115,-4.114943 h 5.78006 l 1.49286,4.114943 h 2.00962 l -5.33985,-13.665439 z"
         style="font-style:normal;font-variant:normal;font-weight:normal;font-stretch:normal;font-size:19.13927078px;font-family:'Helvetica Neue';-inkscape-font-specification:'Helvetica Neue';fill:#a09f9f;fill-opacity:1;stroke-width:0.49259686px"
         id="path4835" /><path
         d="m -195.2626,-28.930653 v -9.895003 h -1.62684 v 5.588667 q 0,0.669875 -0.19139,1.244053 -0.17226,0.555039 -0.5359,0.976103 -0.36365,0.421064 -0.91869,0.650735 -0.5359,0.229671 -1.28233,0.229671 -0.93782,0 -1.47372,-0.535899 -0.5359,-0.5359 -0.5359,-1.454585 v -6.698745 h -1.62684 v 6.507352 q 0,0.80385 0.15312,1.473724 0.17225,0.650736 0.57417,1.129217 0.40193,0.478482 1.05266,0.746432 0.65074,0.24881 1.62684,0.24881 1.09094,0 1.89479,-0.421064 0.80385,-0.440203 1.32061,-1.358888 h 0.0383 v 1.56942 z"
         style="font-style:normal;font-variant:normal;font-weight:normal;font-stretch:normal;font-size:19.13927078px;font-family:'Helvetica Neue';-inkscape-font-specification:'Helvetica Neue';fill:#a09f9f;fill-opacity:1;stroke-width:0.49259686px"
         id="path4837" /><path
         d="m -191.25709,-38.825656 v -2.966587 h -1.62684 v 2.966587 h -1.68425 v 1.435446 h 1.68425 v 6.29682 q 0,0.689014 0.13398,1.110077 0.13397,0.421064 0.40192,0.650736 0.28709,0.229671 0.7273,0.325367 0.45934,0.07656 1.09093,0.07656 h 1.24406 v -1.435445 h -0.74644 q -0.38278,0 -0.63159,-0.01914 -0.22967,-0.03828 -0.36365,-0.133975 -0.13397,-0.0957 -0.19139,-0.26795 -0.0383,-0.172253 -0.0383,-0.459342 v -6.143706 h 1.97135 v -1.435446 z"
         style="font-style:normal;font-variant:normal;font-weight:normal;font-stretch:normal;font-size:19.13927078px;font-family:'Helvetica Neue';-inkscape-font-specification:'Helvetica Neue';fill:#a09f9f;fill-opacity:1;stroke-width:0.49259686px"
         id="path4839" /><path
         d="m -186.98812,-33.868584 q 0,-0.899546 0.22967,-1.58856 0.24881,-0.708153 0.66987,-1.186635 0.42107,-0.478482 0.97611,-0.727292 0.57418,-0.248811 1.20577,-0.248811 0.6316,0 1.18664,0.248811 0.57417,0.24881 0.99524,0.727292 0.42106,0.478482 0.65073,1.186635 0.24881,0.689014 0.24881,1.58856 0,0.899545 -0.24881,1.607698 -0.22967,0.689014 -0.65073,1.167496 -0.42107,0.459342 -0.99524,0.708153 -0.55504,0.24881 -1.18664,0.24881 -0.63159,0 -1.20577,-0.24881 -0.55504,-0.248811 -0.97611,-0.708153 -0.42106,-0.478482 -0.66987,-1.167496 -0.22967,-0.708153 -0.22967,-1.607698 z m -1.72254,0 q 0,1.090938 0.30623,2.028762 0.30623,0.937824 0.91869,1.645978 0.61245,0.689013 1.512,1.090938 0.89955,0.382785 2.06704,0.382785 1.18664,0 2.06704,-0.382785 0.89955,-0.401925 1.51201,-1.090938 0.61245,-0.708154 0.91868,-1.645978 0.30623,-0.937824 0.30623,-2.028762 0,-1.090939 -0.30623,-2.028763 -0.30623,-0.956964 -0.91868,-1.645977 -0.61246,-0.708153 -1.51201,-1.110078 -0.8804,-0.401925 -2.06704,-0.401925 -1.16749,0 -2.06704,0.401925 -0.89955,0.401925 -1.512,1.110078 -0.61246,0.689013 -0.91869,1.645977 -0.30623,0.937824 -0.30623,2.028763 z"
         style="font-style:normal;font-variant:normal;font-weight:normal;font-stretch:normal;font-size:19.13927078px;font-family:'Helvetica Neue';-inkscape-font-specification:'Helvetica Neue';fill:#a09f9f;fill-opacity:1;stroke-width:0.49259686px"
         id="path4841" /><path
         d="m -177.93702,-38.825656 v 9.895003 h 1.62683 v -6.162845 q 0,-0.287089 0.13398,-0.708153 0.15311,-0.440203 0.45934,-0.842128 0.32537,-0.401924 0.82299,-0.689013 0.51676,-0.28709 1.22491,-0.28709 0.55504,0 0.89955,0.172254 0.36365,0.153114 0.57418,0.459342 0.21053,0.287089 0.28709,0.689014 0.0957,0.401925 0.0957,0.880407 v 6.488212 h 1.62684 v -6.162845 q 0,-1.148356 0.68901,-1.83737 0.68902,-0.689014 1.89479,-0.689014 0.59332,0 0.95697,0.172254 0.38278,0.172253 0.59331,0.478482 0.21054,0.287089 0.28709,0.689013 0.0766,0.401925 0.0766,0.861268 v 6.488212 h 1.62684 v -7.253783 q 0,-0.765571 -0.24881,-1.301471 -0.22967,-0.555039 -0.66988,-0.899545 -0.42106,-0.344507 -1.03352,-0.497621 -0.59332,-0.172254 -1.33975,-0.172254 -0.9761,0 -1.79909,0.440203 -0.80385,0.440204 -1.30147,1.244053 -0.30623,-0.918685 -1.05266,-1.30147 -0.74643,-0.382786 -1.66512,-0.382786 -2.08618,0 -3.19625,1.684256 h -0.0383 v -1.454585 z"
         style="font-style:normal;font-variant:normal;font-weight:normal;font-stretch:normal;font-size:19.13927078px;font-family:'Helvetica Neue';-inkscape-font-specification:'Helvetica Neue';fill:#a09f9f;fill-opacity:1;stroke-width:0.49259686px"
         id="path4843" /><path
         d="m -153.55059,-28.968931 q -0.42106,0.24881 -1.16749,0.24881 -0.6316,0 -1.01438,-0.344507 -0.36365,-0.363646 -0.36365,-1.167495 -0.66987,0.803849 -1.56942,1.167495 -0.88041,0.344507 -1.91393,0.344507 -0.66987,0 -1.28233,-0.153114 -0.59332,-0.153114 -1.03352,-0.478482 -0.4402,-0.325367 -0.70815,-0.842127 -0.24881,-0.5359 -0.24881,-1.282332 0,-0.842128 0.28709,-1.378027 0.28709,-0.5359 0.74643,-0.861267 0.47848,-0.344507 1.0718,-0.516761 0.61245,-0.172253 1.24405,-0.287089 0.66987,-0.133975 1.26319,-0.191392 0.61246,-0.07656 1.0718,-0.191393 0.45934,-0.133975 0.72729,-0.363646 0.26795,-0.248811 0.26795,-0.708153 0,-0.5359 -0.21053,-0.861267 -0.19139,-0.325368 -0.51676,-0.497621 -0.30623,-0.172254 -0.70815,-0.229672 -0.38279,-0.05742 -0.76557,-0.05742 -1.03352,0 -1.72254,0.401925 -0.68901,0.382786 -0.74643,1.473724 h -1.62684 q 0.0383,-0.918685 0.38279,-1.550281 0.34451,-0.631596 0.91868,-1.014381 0.57418,-0.401925 1.30147,-0.574178 0.74644,-0.172254 1.58856,-0.172254 0.66988,0 1.32061,0.0957 0.66988,0.0957 1.20578,0.401925 0.5359,0.287089 0.86126,0.822989 0.32537,0.535899 0.32537,1.397167 v 5.091046 q 0,0.574178 0.0574,0.842128 0.0766,0.267949 0.45934,0.267949 0.21053,0 0.49762,-0.0957 z m -2.64122,-5.071907 q -0.30622,0.229671 -0.80385,0.344507 -0.49762,0.0957 -1.05266,0.172253 -0.53589,0.05742 -1.09093,0.153115 -0.55504,0.07656 -0.99525,0.267949 -0.4402,0.191393 -0.72729,0.555039 -0.26795,0.344507 -0.26795,0.956964 0,0.401924 0.15312,0.689013 0.17225,0.26795 0.42106,0.440204 0.26795,0.172253 0.61246,0.24881 0.3445,0.07656 0.72729,0.07656 0.80385,0 1.37803,-0.210532 0.57417,-0.229671 0.93782,-0.555039 0.36365,-0.344506 0.5359,-0.727292 0.17225,-0.401924 0.17225,-0.746431 z"
         style="font-style:normal;font-variant:normal;font-weight:normal;font-stretch:normal;font-size:19.13927078px;font-family:'Helvetica Neue';-inkscape-font-specification:'Helvetica Neue';fill:#a09f9f;fill-opacity:1;stroke-width:0.49259686px"
         id="path4845" /><path
         d="m -150.49307,-38.825656 v -2.966587 h -1.62683 v 2.966587 h -1.68426 v 1.435446 h 1.68426 v 6.29682 q 0,0.689014 0.13397,1.110077 0.13398,0.421064 0.40193,0.650736 0.28708,0.229671 0.72729,0.325367 0.45934,0.07656 1.09094,0.07656 h 1.24405 v -1.435445 h -0.74643 q -0.38279,0 -0.6316,-0.01914 -0.22967,-0.03828 -0.36364,-0.133975 -0.13398,-0.0957 -0.1914,-0.26795 -0.0383,-0.172253 -0.0383,-0.459342 v -6.143706 h 1.97135 v -1.435446 z"
         style="font-style:normal;font-variant:normal;font-weight:normal;font-stretch:normal;font-size:19.13927078px;font-family:'Helvetica Neue';-inkscape-font-specification:'Helvetica Neue';fill:#a09f9f;fill-opacity:1;stroke-width:0.49259686px"
         id="path4847" /><path
         d="m -145.6882,-40.605608 v -1.990484 h -1.62684 v 1.990484 z m -1.62684,1.779952 v 9.895003 h 1.62684 v -9.895003 z"
         style="font-style:normal;font-variant:normal;font-weight:normal;font-stretch:normal;font-size:19.13927078px;font-family:'Helvetica Neue';-inkscape-font-specification:'Helvetica Neue';fill:#a09f9f;fill-opacity:1;stroke-width:0.49259686px"
         id="path4849" /><path
         d="m -142.67764,-33.868584 q 0,-0.899546 0.22968,-1.58856 0.24881,-0.708153 0.66987,-1.186635 0.42106,-0.478482 0.9761,-0.727292 0.57418,-0.248811 1.20578,-0.248811 0.63159,0 1.18663,0.248811 0.57418,0.24881 0.99524,0.727292 0.42107,0.478482 0.65074,1.186635 0.24881,0.689014 0.24881,1.58856 0,0.899545 -0.24881,1.607698 -0.22967,0.689014 -0.65074,1.167496 -0.42106,0.459342 -0.99524,0.708153 -0.55504,0.24881 -1.18663,0.24881 -0.6316,0 -1.20578,-0.24881 -0.55504,-0.248811 -0.9761,-0.708153 -0.42106,-0.478482 -0.66987,-1.167496 -0.22968,-0.708153 -0.22968,-1.607698 z m -1.72253,0 q 0,1.090938 0.30623,2.028762 0.30623,0.937824 0.91868,1.645978 0.61246,0.689013 1.51201,1.090938 0.89954,0.382785 2.06704,0.382785 1.18663,0 2.06704,-0.382785 0.89954,-0.401925 1.512,-1.090938 0.61246,-0.708154 0.91869,-1.645978 0.30622,-0.937824 0.30622,-2.028762 0,-1.090939 -0.30622,-2.028763 -0.30623,-0.956964 -0.91869,-1.645977 -0.61246,-0.708153 -1.512,-1.110078 -0.88041,-0.401925 -2.06704,-0.401925 -1.1675,0 -2.06704,0.401925 -0.89955,0.401925 -1.51201,1.110078 -0.61245,0.689013 -0.91868,1.645977 -0.30623,0.937824 -0.30623,2.028763 z"
         style="font-style:normal;font-variant:normal;font-weight:normal;font-stretch:normal;font-size:19.13927078px;font-family:'Helvetica Neue';-inkscape-font-specification:'Helvetica Neue';fill:#a09f9f;fill-opacity:1;stroke-width:0.49259686px"
         id="path4851" /><path
         d="m -133.62653,-38.825656 v 9.895003 h 1.62684 v -5.588667 q 0,-0.669874 0.17225,-1.224913 0.19139,-0.574178 0.55504,-0.995242 0.36365,-0.421064 0.89955,-0.650735 0.55503,-0.229672 1.30147,-0.229672 0.93782,0 1.47372,0.5359 0.5359,0.5359 0.5359,1.454585 v 6.698744 h 1.62684 v -6.507352 q 0,-0.803849 -0.17226,-1.454584 -0.15311,-0.669875 -0.55503,-1.148357 -0.40193,-0.478481 -1.05266,-0.746431 -0.65074,-0.26795 -1.62684,-0.26795 -2.20102,0 -3.2154,1.799092 h -0.0383 v -1.569421 z"
         style="font-style:normal;font-variant:normal;font-weight:normal;font-stretch:normal;font-size:19.13927078px;font-family:'Helvetica Neue';-inkscape-font-specification:'Helvetica Neue';fill:#a09f9f;fill-opacity:1;stroke-width:0.49259686px"
         id="path4853" /><path
         d="m -117.90808,-33.868584 q 0,-0.899546 0.22967,-1.58856 0.24881,-0.708153 0.66987,-1.186635 0.42107,-0.478482 0.97611,-0.727292 0.57418,-0.248811 1.20577,-0.248811 0.6316,0 1.18664,0.248811 0.57417,0.24881 0.99524,0.727292 0.42106,0.478482 0.65073,1.186635 0.24881,0.689014 0.24881,1.58856 0,0.899545 -0.24881,1.607698 -0.22967,0.689014 -0.65073,1.167496 -0.42107,0.459342 -0.99524,0.708153 -0.55504,0.24881 -1.18664,0.24881 -0.63159,0 -1.20577,-0.24881 -0.55504,-0.248811 -0.97611,-0.708153 -0.42106,-0.478482 -0.66987,-1.167496 -0.22967,-0.708153 -0.22967,-1.607698 z m -1.72254,0 q 0,1.090938 0.30623,2.028762 0.30623,0.937824 0.91869,1.645978 0.61245,0.689013 1.512,1.090938 0.89955,0.382785 2.06704,0.382785 1.18664,0 2.06704,-0.382785 0.89955,-0.401925 1.51201,-1.090938 0.61245,-0.708154 0.91868,-1.645978 0.30623,-0.937824 0.30623,-2.028762 0,-1.090939 -0.30623,-2.028763 -0.30623,-0.956964 -0.91868,-1.645977 -0.61246,-0.708153 -1.51201,-1.110078 -0.8804,-0.401925 -2.06704,-0.401925 -1.16749,0 -2.06704,0.401925 -0.89955,0.401925 -1.512,1.110078 -0.61246,0.689013 -0.91869,1.645977 -0.30623,0.937824 -0.30623,2.028763 z"
         style="font-style:normal;font-variant:normal;font-weight:normal;font-stretch:normal;font-size:19.13927078px;font-family:'Helvetica Neue';-inkscape-font-specification:'Helvetica Neue';fill:#a09f9f;fill-opacity:1;stroke-width:0.49259686px"
         id="path4855" /><path
         d="m -108.18711,-37.39021 v 8.459557 h 1.62684 v -8.459557 h 1.91393 v -1.435446 h -1.91393 v -1.378027 q 0,-0.650735 0.32537,-0.880407 0.32536,-0.229671 0.91868,-0.229671 0.21053,0 0.45934,0.03828 0.24881,0.01914 0.45935,0.0957 v -1.416306 q -0.22968,-0.07656 -0.5359,-0.114836 -0.28709,-0.03828 -0.51676,-0.03828 -1.33975,0 -2.04791,0.631596 -0.68901,0.612456 -0.68901,1.818231 v 1.473723 h -1.66512 v 1.435446 z"
         style="font-style:normal;font-variant:normal;font-weight:normal;font-stretch:normal;font-size:19.13927078px;font-family:'Helvetica Neue';-inkscape-font-specification:'Helvetica Neue';fill:#a09f9f;fill-opacity:1;stroke-width:0.49259686px"
         id="path4857" /><path
         d="m -89.421016,-38.481149 h 1.818231 q -0.153114,-1.090938 -0.650735,-1.913927 -0.497621,-0.842128 -1.244053,-1.397167 -0.746431,-0.555038 -1.703395,-0.842127 -0.956964,-0.28709 -2.028763,-0.28709 -1.56942,0 -2.794333,0.574179 -1.205774,0.555038 -2.028763,1.531141 -0.803849,0.976103 -1.224913,2.296713 -0.421064,1.30147 -0.421064,2.794333 0,1.492863 0.382785,2.794334 0.401925,1.30147 1.186635,2.258434 0.78471,0.956963 1.971345,1.512002 1.186635,0.5359 2.775194,0.5359 2.62208,0 4.134083,-1.435446 1.512002,-1.435445 1.779952,-4.019246 h -1.818231 q -0.05742,0.842127 -0.344507,1.56942 -0.287089,0.727292 -0.803849,1.263192 -0.497621,0.51676 -1.205774,0.822988 -0.689014,0.287089 -1.58856,0.287089 -1.224913,0 -2.105319,-0.459342 -0.880407,-0.459343 -1.454585,-1.224914 -0.555039,-0.78471 -0.822989,-1.81823 -0.267949,-1.05266 -0.267949,-2.220156 0,-1.071799 0.267949,-2.067041 0.26795,-0.995242 0.822989,-1.760813 0.574178,-0.78471 1.435445,-1.244052 0.880407,-0.459343 2.10532,-0.459343 1.435445,0 2.468966,0.727292 1.05266,0.727293 1.358888,2.181877 z"
         style="font-style:normal;font-variant:normal;font-weight:normal;font-stretch:normal;font-size:19.13927078px;font-family:'Helvetica Neue';-inkscape-font-specification:'Helvetica Neue';fill:#a09f9f;fill-opacity:1;stroke-width:0.49259686px"
         id="path4859" /><path
         d="m -84.994141,-33.868584 q 0,-0.899546 0.229672,-1.58856 0.24881,-0.708153 0.669874,-1.186635 0.421064,-0.478482 0.976103,-0.727292 0.574178,-0.248811 1.205774,-0.248811 0.631596,0 1.186635,0.248811 0.574178,0.24881 0.995242,0.727292 0.421064,0.478482 0.650735,1.186635 0.248811,0.689014 0.248811,1.58856 0,0.899545 -0.248811,1.607698 -0.229671,0.689014 -0.650735,1.167496 -0.421064,0.459342 -0.995242,0.708153 -0.555039,0.24881 -1.186635,0.24881 -0.631596,0 -1.205774,-0.24881 -0.555039,-0.248811 -0.976103,-0.708153 -0.421064,-0.478482 -0.669874,-1.167496 -0.229672,-0.708153 -0.229672,-1.607698 z m -1.722534,0 q 0,1.090938 0.306228,2.028762 0.306229,0.937824 0.918685,1.645978 0.612457,0.689013 1.512003,1.090938 0.899545,0.382785 2.067041,0.382785 1.186635,0 2.067041,-0.382785 0.899546,-0.401925 1.512003,-1.090938 0.612456,-0.708154 0.918685,-1.645978 0.306228,-0.937824 0.306228,-2.028762 0,-1.090939 -0.306228,-2.028763 -0.306229,-0.956964 -0.918685,-1.645977 -0.612457,-0.708153 -1.512003,-1.110078 -0.880406,-0.401925 -2.067041,-0.401925 -1.167496,0 -2.067041,0.401925 -0.899546,0.401925 -1.512003,1.110078 -0.612456,0.689013 -0.918685,1.645977 -0.306228,0.937824 -0.306228,2.028763 z"
         style="font-style:normal;font-variant:normal;font-weight:normal;font-stretch:normal;font-size:19.13927078px;font-family:'Helvetica Neue';-inkscape-font-specification:'Helvetica Neue';fill:#a09f9f;fill-opacity:1;stroke-width:0.49259686px"
         id="path4861" /><path
         d="m -75.943043,-38.825656 v 9.895003 h 1.626838 v -6.162845 q 0,-0.287089 0.133974,-0.708153 0.153115,-0.440203 0.459343,-0.842128 0.325368,-0.401924 0.822989,-0.689013 0.51676,-0.28709 1.224913,-0.28709 0.555039,0 0.899546,0.172254 0.363646,0.153114 0.574178,0.459342 0.210532,0.287089 0.287089,0.689014 0.0957,0.401925 0.0957,0.880407 v 6.488212 h 1.626838 v -6.162845 q 0,-1.148356 0.689014,-1.83737 0.689014,-0.689014 1.894788,-0.689014 0.593317,0 0.956963,0.172254 0.382786,0.172253 0.593318,0.478482 0.210532,0.287089 0.287089,0.689013 0.07656,0.401925 0.07656,0.861268 v 6.488212 h 1.626838 v -7.253783 q 0,-0.765571 -0.248811,-1.301471 -0.229671,-0.555039 -0.669874,-0.899545 -0.421064,-0.344507 -1.033521,-0.497621 -0.593317,-0.172254 -1.339749,-0.172254 -0.976103,0 -1.799091,0.440203 -0.80385,0.440204 -1.301471,1.244053 -0.306228,-0.918685 -1.052659,-1.30147 -0.746432,-0.382786 -1.665117,-0.382786 -2.086181,0 -3.196258,1.684256 h -0.03828 v -1.454585 z"
         style="font-style:normal;font-variant:normal;font-weight:normal;font-stretch:normal;font-size:19.13927078px;font-family:'Helvetica Neue';-inkscape-font-specification:'Helvetica Neue';fill:#a09f9f;fill-opacity:1;stroke-width:0.49259686px"
         id="path4863" /><path
         d="m -60.264974,-38.825656 v 13.66544 h 1.626838 v -5.091046 h 0.03828 q 0.26795,0.440203 0.650735,0.746431 0.401925,0.287089 0.842128,0.459343 0.440203,0.172253 0.880407,0.24881 0.459342,0.07656 0.822988,0.07656 1.129217,0 1.971345,-0.401924 0.861267,-0.401925 1.416306,-1.090939 0.574178,-0.708153 0.842128,-1.645977 0.287089,-0.937824 0.287089,-1.990484 0,-1.05266 -0.287089,-1.990484 -0.287089,-0.937825 -0.861267,-1.645978 -0.555039,-0.727292 -1.416306,-1.148356 -0.842128,-0.421064 -1.990484,-0.421064 -1.033521,0 -1.894788,0.382786 -0.861267,0.363646 -1.263192,1.186634 h -0.03828 v -1.339749 z m 7.655708,4.861375 q 0,0.727292 -0.153114,1.416306 -0.153114,0.689014 -0.497621,1.224914 -0.344507,0.535899 -0.918685,0.861267 -0.555039,0.325367 -1.397167,0.325367 -0.842128,0 -1.435445,-0.306228 -0.593318,-0.325368 -0.976103,-0.842128 -0.363646,-0.51676 -0.5359,-1.186635 -0.172253,-0.689013 -0.172253,-1.416306 0,-0.689013 0.153114,-1.358888 0.172253,-0.669874 0.5359,-1.186635 0.363646,-0.535899 0.937824,-0.861267 0.574178,-0.325368 1.397167,-0.325368 0.78471,0 1.358888,0.306229 0.593317,0.306228 0.956963,0.822988 0.382786,0.516761 0.555039,1.186635 0.191393,0.650735 0.191393,1.339749 z"
         style="font-style:normal;font-variant:normal;font-weight:normal;font-stretch:normal;font-size:19.13927078px;font-family:'Helvetica Neue';-inkscape-font-specification:'Helvetica Neue';fill:#a09f9f;fill-opacity:1;stroke-width:0.49259686px"
         id="path4865" /><path
         d="m -49.615154,-42.596092 v 13.665439 h 1.626838 v -13.665439 z"
         style="font-style:normal;font-variant:normal;font-weight:normal;font-stretch:normal;font-size:19.13927078px;font-family:'Helvetica Neue';-inkscape-font-specification:'Helvetica Neue';fill:#a09f9f;fill-opacity:1;stroke-width:0.49259686px"
         id="path4867" /><path
         d="m -39.293389,-34.825548 h -5.684364 q 0.03828,-0.574178 0.248811,-1.071799 0.210532,-0.51676 0.574178,-0.899546 0.363646,-0.382785 0.861267,-0.593317 0.51676,-0.229672 1.148356,-0.229672 0.612457,0 1.110078,0.229672 0.51676,0.210532 0.880407,0.593317 0.382785,0.363646 0.593317,0.880407 0.229671,0.51676 0.26795,1.090938 z m 1.56942,2.756055 h -1.607699 q -0.210532,0.976103 -0.880406,1.454585 -0.650735,0.478481 -1.684256,0.478481 -0.803849,0 -1.397167,-0.267949 -0.593317,-0.26795 -0.976103,-0.708153 -0.382785,-0.459343 -0.555039,-1.033521 -0.172253,-0.593318 -0.153114,-1.244053 h 7.406898 q 0.03828,-0.899545 -0.172253,-1.894788 -0.191393,-0.995242 -0.727293,-1.83737 -0.51676,-0.842127 -1.397166,-1.378027 -0.861268,-0.555039 -2.181877,-0.555039 -1.014382,0 -1.875649,0.382786 -0.842128,0.382785 -1.473724,1.071799 -0.612456,0.689013 -0.956963,1.626838 -0.344507,0.937824 -0.344507,2.067041 0.03828,1.129217 0.325368,2.08618 0.306228,0.956964 0.899545,1.645978 0.593318,0.689014 1.454585,1.071799 0.880406,0.382785 2.067041,0.382785 1.684256,0 2.794334,-0.842128 1.110077,-0.842127 1.435445,-2.507244 z"
         style="font-style:normal;font-variant:normal;font-weight:normal;font-stretch:normal;font-size:19.13927078px;font-family:'Helvetica Neue';-inkscape-font-specification:'Helvetica Neue';fill:#a09f9f;fill-opacity:1;stroke-width:0.49259686px"
         id="path4869" /><path
         d="m -33.939164,-34.136534 -3.713018,5.205881 h 1.971345 l 2.756055,-4.095804 2.756055,4.095804 h 2.08618 l -3.827854,-5.339856 3.40679,-4.555147 h -1.952205 l -2.468966,3.464208 -2.37327,-3.464208 h -2.08618 z"
         style="font-style:normal;font-variant:normal;font-weight:normal;font-stretch:normal;font-size:19.13927078px;font-family:'Helvetica Neue';-inkscape-font-specification:'Helvetica Neue';fill:#a09f9f;fill-opacity:1;stroke-width:0.49259686px"
         id="path4871" /><path
         d="m -197.26561,-12.111336 v -5.014489 h 3.5599 q 1.55028,0 2.25844,0.650735 0.72729,0.631596 0.72729,1.856509 0,1.224914 -0.72729,1.875649 -0.70816,0.650735 -2.25844,0.631596 z m -1.81823,-6.545631 v 13.6654394 h 1.81823 v -5.5886674 h 4.17236 q 2.06704,0.01914 3.1197,-1.05266 1.0718,-1.071799 1.0718,-2.985726 0,-1.913927 -1.0718,-2.966587 -1.05266,-1.071799 -3.1197,-1.071799 z"
         style="font-style:normal;font-variant:normal;font-weight:normal;font-stretch:normal;font-size:19.13927078px;font-family:'Helvetica Neue';-inkscape-font-specification:'Helvetica Neue';letter-spacing:-0.71501422px;fill:#a09f9f;fill-opacity:1;stroke-width:0.49259686px"
         id="path4873" /><path
         d="m -186.46955,-9.9294595 q 0,-0.8995455 0.22967,-1.5885595 0.24881,-0.708153 0.66988,-1.186635 0.42106,-0.478481 0.9761,-0.727292 0.57418,-0.248811 1.20577,-0.248811 0.6316,0 1.18664,0.248811 0.57418,0.248811 0.99524,0.727292 0.42106,0.478482 0.65074,1.186635 0.24881,0.689014 0.24881,1.5885595 0,0.8995458 -0.24881,1.6076988 -0.22968,0.6890137 -0.65074,1.1674955 -0.42106,0.4593425 -0.99524,0.708153 -0.55504,0.2488105 -1.18664,0.2488105 -0.63159,0 -1.20577,-0.2488105 -0.55504,-0.2488105 -0.9761,-0.708153 -0.42107,-0.4784818 -0.66988,-1.1674955 -0.22967,-0.708153 -0.22967,-1.6076988 z m -1.72253,0 q 0,1.0909385 0.30622,2.0287627 0.30623,0.9378243 0.91869,1.6459773 0.61246,0.6890138 1.512,1.0909385 0.89955,0.3827854 2.06704,0.3827854 1.18664,0 2.06704,-0.3827854 0.89955,-0.4019247 1.51201,-1.0909385 0.61245,-0.708153 0.91868,-1.6459773 0.30623,-0.9378242 0.30623,-2.0287627 0,-1.0909385 -0.30623,-2.0287625 -0.30623,-0.956964 -0.91868,-1.645977 -0.61246,-0.708153 -1.51201,-1.110078 -0.8804,-0.401925 -2.06704,-0.401925 -1.16749,0 -2.06704,0.401925 -0.89954,0.401925 -1.512,1.110078 -0.61246,0.689013 -0.91869,1.645977 -0.30622,0.937824 -0.30622,2.0287625 z"
         style="font-style:normal;font-variant:normal;font-weight:normal;font-stretch:normal;font-size:19.13927078px;font-family:'Helvetica Neue';-inkscape-font-specification:'Helvetica Neue';letter-spacing:-0.71501422px;fill:#a09f9f;fill-opacity:1;stroke-width:0.49259686px"
         id="path4875" /><path
         d="m -167.61915,-4.9915276 3.15798,-9.8950034 h -1.68425 l -2.22016,8.0959119 h -0.0383 l -2.06704,-8.0959119 h -1.77995 l -1.99049,8.0959119 h -0.0383 l -2.2393,-8.0959119 h -1.79909 l 3.17712,9.8950034 h 1.76081 l 1.99049,-7.8662404 h 0.0383 l 2.00963,7.8662404 z"
         style="font-style:normal;font-variant:normal;font-weight:normal;font-stretch:normal;font-size:19.13927078px;font-family:'Helvetica Neue';-inkscape-font-specification:'Helvetica Neue';letter-spacing:-0.71501422px;fill:#a09f9f;fill-opacity:1;stroke-width:0.49259686px"
         id="path4877" /><path
         d="m -156.75849,-10.886423 h -5.68436 q 0.0383,-0.574178 0.24881,-1.071799 0.21053,-0.51676 0.57418,-0.899546 0.36364,-0.382785 0.86126,-0.593317 0.51676,-0.229672 1.14836,-0.229672 0.61246,0 1.11008,0.229672 0.51676,0.210532 0.8804,0.593317 0.38279,0.363646 0.59332,0.880407 0.22967,0.51676 0.26795,1.090938 z m 1.56942,2.756055 h -1.6077 q -0.21053,0.9761028 -0.8804,1.4545846 -0.65074,0.4784817 -1.68426,0.4784817 -0.80385,0 -1.39717,-0.2679497 -0.59331,-0.2679498 -0.9761,-0.7081531 -0.38278,-0.4593425 -0.55504,-1.0335206 -0.17225,-0.5933174 -0.15311,-1.2440526 h 7.4069 q 0.0383,-0.8995453 -0.17226,-1.8947873 -0.19139,-0.995243 -0.72729,-1.83737 -0.51676,-0.842128 -1.39717,-1.378028 -0.86126,-0.555039 -2.18187,-0.555039 -1.01439,0 -1.87565,0.382786 -0.84213,0.382785 -1.47373,1.071799 -0.61245,0.689013 -0.95696,1.626838 -0.34451,0.937824 -0.34451,2.067041 0.0383,1.129217 0.32537,2.0861805 0.30623,0.9569636 0.89955,1.6459773 0.59331,0.6890137 1.45458,1.0717992 0.88041,0.3827854 2.06704,0.3827854 1.68426,0 2.79434,-0.8421279 1.11007,-0.8421279 1.43544,-2.5072445 z"
         style="font-style:normal;font-variant:normal;font-weight:normal;font-stretch:normal;font-size:19.13927078px;font-family:'Helvetica Neue';-inkscape-font-specification:'Helvetica Neue';letter-spacing:-0.71501422px;fill:#a09f9f;fill-opacity:1;stroke-width:0.49259686px"
         id="path4879" /><path
         d="m -154.12204,-14.886531 v 9.8950034 h 1.62684 v -4.4020323 q 0,-0.9569631 0.19139,-1.6842561 0.19139,-0.746431 0.61246,-1.263192 0.42106,-0.51676 1.11008,-0.78471 0.68901,-0.267949 1.66511,-0.267949 v -1.722535 q -1.32061,-0.03828 -2.18187,0.5359 -0.86127,0.574178 -1.45459,1.779952 h -0.0383 v -2.086181 z"
         style="font-style:normal;font-variant:normal;font-weight:normal;font-stretch:normal;font-size:19.13927078px;font-family:'Helvetica Neue';-inkscape-font-specification:'Helvetica Neue';letter-spacing:-0.71501422px;fill:#a09f9f;fill-opacity:1;stroke-width:0.49259686px"
         id="path4881" /><path
         d="m -135.62181,-14.656859 h 1.72253 q -0.0383,-1.129217 -0.4402,-1.933067 -0.38278,-0.822988 -1.0718,-1.358888 -0.66987,-0.5359 -1.56942,-0.78471 -0.89954,-0.248811 -1.9522,-0.248811 -0.93783,0 -1.83737,0.248811 -0.88041,0.229671 -1.58856,0.727292 -0.68902,0.478482 -1.11008,1.244053 -0.42106,0.746431 -0.42106,1.779952 0,0.937824 0.36364,1.56942 0.38279,0.612457 0.99524,1.014382 0.6316,0.382785 1.41631,0.631596 0.78471,0.229671 1.58856,0.421064 0.82299,0.172253 1.6077,0.344506 0.78471,0.172254 1.39716,0.459343 0.6316,0.26795 0.99525,0.7081529 0.38278,0.4402032 0.38278,1.1483562 0,0.7464316 -0.30623,1.2249134 -0.30622,0.4784817 -0.80385,0.7655708 -0.49762,0.2679498 -1.12921,0.3827854 -0.61246,0.1148356 -1.22492,0.1148356 -0.76557,0 -1.49286,-0.1913927 -0.72729,-0.1913927 -1.28233,-0.5933174 -0.5359,-0.4019246 -0.88041,-1.0143813 -0.32536,-0.6315959 -0.32536,-1.4928631 h -1.72254 q 0,1.2440526 0.4402,2.1627376 0.45935,0.8995457 1.22492,1.4928631 0.78471,0.5741781 1.79909,0.8612672 1.03352,0.287089 2.18188,0.287089 0.93782,0 1.87565,-0.2296712 0.95696,-0.210532 1.72253,-0.6890138 0.76557,-0.497621 1.24405,-1.2631918 0.49762,-0.7847101 0.49762,-1.8756486 0,-1.0143813 -0.38278,-1.6842563 -0.36365,-0.669874 -0.99524,-1.110077 -0.61246,-0.440203 -1.39717,-0.689014 -0.78471,-0.26795 -1.6077,-0.459342 -0.80385,-0.191393 -1.58856,-0.344507 -0.78471,-0.172254 -1.41631,-0.421064 -0.61245,-0.248811 -0.99524,-0.631596 -0.36364,-0.401925 -0.36364,-1.033521 0,-0.669874 0.24881,-1.110078 0.26795,-0.459342 0.68901,-0.727292 0.4402,-0.26795 0.99524,-0.382785 0.55504,-0.114836 1.12922,-0.114836 1.41631,0 2.31585,0.669875 0.91869,0.650735 1.0718,2.124459 z"
         style="font-style:normal;font-variant:normal;font-weight:normal;font-stretch:normal;font-size:19.13927078px;font-family:'Helvetica Neue';-inkscape-font-specification:'Helvetica Neue';letter-spacing:-0.71501422px;fill:#a09f9f;fill-opacity:1;stroke-width:0.49259686px"
         id="path4883" /><path
         d="m -128.2134,-3.6709179 q -0.28709,0.7272923 -0.57417,1.2249133 -0.26795,0.4976211 -0.61246,0.8038494 -0.32537,0.3253676 -0.74643,0.4593425 -0.40193,0.1531142 -0.93783,0.1531142 -0.28709,0 -0.57417,-0.038279 -0.28709,-0.038278 -0.55504,-0.1339749 v -1.4928631 q 0.21053,0.095696 0.47848,0.1531142 0.28709,0.076557 0.47848,0.076557 0.49762,0 0.82299,-0.2488105 0.34451,-0.2296712 0.51676,-0.6698745 l 0.66987,-1.6651165 -3.92355,-9.8375856 h 1.83737 l 2.89003,8.0959119 h 0.0383 l 2.7752,-8.0959119 h 1.72253 z"
         style="font-style:normal;font-variant:normal;font-weight:normal;font-stretch:normal;font-size:19.13927078px;font-family:'Helvetica Neue';-inkscape-font-specification:'Helvetica Neue';letter-spacing:-0.71501422px;fill:#a09f9f;fill-opacity:1;stroke-width:0.49259686px"
         id="path4885" /><path
         d="m -122.2488,-8.1112287 h -1.62684 q 0.0383,0.918685 0.38278,1.5694202 0.34451,0.6315959 0.91869,1.0335206 0.57418,0.3827854 1.32061,0.5550388 0.74643,0.1722535 1.56942,0.1722535 0.74643,0 1.49286,-0.1531142 0.76557,-0.1339749 1.35889,-0.497621 0.61246,-0.3636462 0.9761,-0.9569636 0.38279,-0.5933174 0.38279,-1.4928631 0,-0.708153 -0.28709,-1.1866348 -0.26795,-0.4784817 -0.72729,-0.7847101 -0.44021,-0.3253676 -1.03352,-0.5167606 -0.57418,-0.191392 -1.18664,-0.325367 -0.57418,-0.133975 -1.14836,-0.248811 -0.57417,-0.133975 -1.03352,-0.306228 -0.45934,-0.191393 -0.76557,-0.459343 -0.28709,-0.287089 -0.28709,-0.708153 0,-0.382785 0.1914,-0.612456 0.19139,-0.248811 0.49762,-0.382786 0.30623,-0.153114 0.66987,-0.210532 0.38279,-0.05742 0.74643,-0.05742 0.40193,0 0.78471,0.0957 0.40193,0.07656 0.7273,0.26795 0.32536,0.191392 0.5359,0.51676 0.21053,0.306228 0.24881,0.78471 h 1.62683 q -0.0574,-0.899546 -0.38278,-1.492863 -0.32537,-0.612457 -0.88041,-0.956964 -0.5359,-0.363646 -1.24405,-0.497621 -0.70815,-0.153114 -1.55028,-0.153114 -0.65074,0 -1.32061,0.172254 -0.65074,0.153114 -1.18664,0.497621 -0.51676,0.325367 -0.86126,0.861267 -0.32537,0.535899 -0.32537,1.282331 0,0.956964 0.47848,1.492863 0.47848,0.5359 1.18664,0.842128 0.72729,0.2870891 1.56942,0.4593425 0.84212,0.1531142 1.55028,0.3636461 0.72729,0.1913927 1.20577,0.5167604 0.47848,0.3253676 0.47848,0.9569635 0,0.4593425 -0.22967,0.7655708 -0.22967,0.2870891 -0.59332,0.4402033 -0.3445,0.1531141 -0.76557,0.2105319 -0.42106,0.057418 -0.80385,0.057418 -0.49762,0 -0.9761,-0.095696 -0.45934,-0.095696 -0.84213,-0.3062283 -0.36364,-0.2296713 -0.59331,-0.5933174 -0.22967,-0.3827855 -0.24881,-0.918685 z"
         style="font-style:normal;font-variant:normal;font-weight:normal;font-stretch:normal;font-size:19.13927078px;font-family:'Helvetica Neue';-inkscape-font-specification:'Helvetica Neue';letter-spacing:-0.71501422px;fill:#a09f9f;fill-opacity:1;stroke-width:0.49259686px"
         id="path4887" /><path
         d="m -112.16837,-14.886531 v -2.966587 h -1.62684 v 2.966587 h -1.68426 v 1.435446 h 1.68426 v 6.2968198 q 0,0.6890138 0.13397,1.1100777 0.13398,0.421064 0.40193,0.6507352 0.28709,0.2296713 0.72729,0.3253676 0.45934,0.076557 1.09094,0.076557 h 1.24405 v -1.4354453 h -0.74643 q -0.38279,0 -0.6316,-0.019139 -0.22967,-0.038278 -0.36364,-0.1339749 -0.13398,-0.095696 -0.1914,-0.2679498 -0.0383,-0.1722534 -0.0383,-0.4593425 v -6.1437056 h 1.97134 v -1.435446 z"
         style="font-style:normal;font-variant:normal;font-weight:normal;font-stretch:normal;font-size:19.13927078px;font-family:'Helvetica Neue';-inkscape-font-specification:'Helvetica Neue';letter-spacing:-0.71501422px;fill:#a09f9f;fill-opacity:1;stroke-width:0.49259686px"
         id="path4889" /><path
         d="m -102.21504,-10.886423 h -5.68436 q 0.0383,-0.574178 0.24881,-1.071799 0.21053,-0.51676 0.57418,-0.899546 0.36365,-0.382785 0.86127,-0.593317 0.51676,-0.229672 1.14835,-0.229672 0.61246,0 1.11008,0.229672 0.51676,0.210532 0.88041,0.593317 0.38278,0.363646 0.59331,0.880407 0.22968,0.51676 0.26795,1.090938 z m 1.56942,2.756055 h -1.60769 q -0.21054,0.9761028 -0.88041,1.4545846 -0.65074,0.4784817 -1.68426,0.4784817 -0.80385,0 -1.39716,-0.2679497 -0.59332,-0.2679498 -0.97611,-0.7081531 -0.38278,-0.4593425 -0.55503,-1.0335206 -0.17226,-0.5933174 -0.15312,-1.2440526 h 7.4069 q 0.0383,-0.8995453 -0.17225,-1.8947873 -0.1914,-0.995243 -0.7273,-1.83737 -0.51676,-0.842128 -1.39716,-1.378028 -0.86127,-0.555039 -2.18188,-0.555039 -1.01438,0 -1.87565,0.382786 -0.84213,0.382785 -1.47372,1.071799 -0.61246,0.689013 -0.95697,1.626838 -0.3445,0.937824 -0.3445,2.067041 0.0383,1.129217 0.32536,2.0861805 0.30623,0.9569636 0.89955,1.6459773 0.59332,0.6890137 1.45458,1.0717992 0.88041,0.3827854 2.06705,0.3827854 1.68425,0 2.79433,-0.8421279 1.11008,-0.8421279 1.43544,-2.5072445 z"
         style="font-style:normal;font-variant:normal;font-weight:normal;font-stretch:normal;font-size:19.13927078px;font-family:'Helvetica Neue';-inkscape-font-specification:'Helvetica Neue';letter-spacing:-0.71501422px;fill:#a09f9f;fill-opacity:1;stroke-width:0.49259686px"
         id="path4891" /><path
         d="m -99.521169,-14.886531 v 9.8950034 h 1.626838 v -6.1628454 q 0,-0.287089 0.133975,-0.708153 0.153114,-0.440203 0.459343,-0.842128 0.325367,-0.401924 0.822988,-0.689013 0.516761,-0.28709 1.224914,-0.28709 0.555039,0 0.899546,0.172254 0.363646,0.153114 0.574178,0.459342 0.210532,0.287089 0.287089,0.689014 0.0957,0.401925 0.0957,0.880407 v 6.4882124 h 1.626838 v -6.1628454 q 0,-1.148356 0.689014,-1.83737 0.689014,-0.689014 1.894788,-0.689014 0.593317,0 0.956963,0.172254 0.382786,0.172253 0.593318,0.478482 0.210532,0.287089 0.287089,0.689013 0.07656,0.401925 0.07656,0.861268 v 6.4882124 h 1.626838 v -7.2537834 q 0,-0.765571 -0.248811,-1.301471 -0.229671,-0.555038 -0.669874,-0.899545 -0.421064,-0.344507 -1.033521,-0.497621 -0.593317,-0.172254 -1.339749,-0.172254 -0.976103,0 -1.799091,0.440203 -0.80385,0.440204 -1.301471,1.244053 -0.306228,-0.918685 -1.05266,-1.30147 -0.746431,-0.382786 -1.665116,-0.382786 -2.086181,0 -3.196258,1.684256 h -0.03828 v -1.454585 z"
         style="font-style:normal;font-variant:normal;font-weight:normal;font-stretch:normal;font-size:19.13927078px;font-family:'Helvetica Neue';-inkscape-font-specification:'Helvetica Neue';letter-spacing:-0.71501422px;fill:#a09f9f;fill-opacity:1;stroke-width:0.49259686px"
         id="path4893" /><path
         d="m -82.905268,-8.1112287 h -1.626838 q 0.03828,0.918685 0.382786,1.5694202 0.344507,0.6315959 0.918685,1.0335206 0.574178,0.3827854 1.320609,0.5550388 0.746432,0.1722535 1.569421,0.1722535 0.746431,0 1.492863,-0.1531142 0.765571,-0.1339749 1.358888,-0.497621 0.612457,-0.3636462 0.976103,-0.9569636 0.382785,-0.5933174 0.382785,-1.4928631 0,-0.708153 -0.287089,-1.1866348 -0.26795,-0.4784817 -0.727292,-0.7847101 -0.440203,-0.3253676 -1.033521,-0.5167606 -0.574178,-0.191392 -1.186635,-0.325367 -0.574178,-0.133975 -1.148356,-0.248811 -0.574178,-0.133975 -1.03352,-0.306228 -0.459343,-0.191393 -0.765571,-0.459343 -0.287089,-0.287089 -0.287089,-0.708153 0,-0.382785 0.191392,-0.612456 0.191393,-0.248811 0.497621,-0.382786 0.306229,-0.153114 0.669875,-0.210532 0.382785,-0.05742 0.746431,-0.05742 0.401925,0 0.784711,0.0957 0.401924,0.07656 0.727292,0.26795 0.325367,0.191392 0.535899,0.51676 0.210532,0.306228 0.248811,0.78471 h 1.626838 q -0.05742,-0.899546 -0.382785,-1.492863 -0.325368,-0.612457 -0.880407,-0.956964 -0.535899,-0.363646 -1.244052,-0.497621 -0.708153,-0.153114 -1.550281,-0.153114 -0.650736,0 -1.32061,0.172254 -0.650735,0.153114 -1.186635,0.497621 -0.51676,0.325367 -0.861267,0.861267 -0.325368,0.535899 -0.325368,1.282331 0,0.956964 0.478482,1.492863 0.478482,0.5359 1.186635,0.842128 0.727292,0.2870891 1.56942,0.4593425 0.842128,0.1531142 1.550281,0.3636461 0.727292,0.1913927 1.205774,0.5167604 0.478482,0.3253676 0.478482,0.9569635 0,0.4593425 -0.229671,0.7655708 -0.229672,0.2870891 -0.593318,0.4402033 -0.344507,0.1531141 -0.765571,0.2105319 -0.421064,0.057418 -0.803849,0.057418 -0.497621,0 -0.976103,-0.095696 -0.459342,-0.095696 -0.842128,-0.3062283 -0.363646,-0.2296713 -0.593317,-0.5933174 -0.229671,-0.3827855 -0.248811,-0.918685 z"
         style="font-style:normal;font-variant:normal;font-weight:normal;font-stretch:normal;font-size:19.13927078px;font-family:'Helvetica Neue';-inkscape-font-specification:'Helvetica Neue';letter-spacing:-0.71501422px;fill:#a09f9f;fill-opacity:1;stroke-width:0.49259686px"
         id="path4895" /></g></g></svg>