<?xml version="1.0" encoding="UTF-8" standalone="no"?>
<!-- Created with Inkscape (http://www.inkscape.org/) -->

<svg
   xmlns:dc="http://purl.org/dc/elements/1.1/"
   xmlns:cc="http://creativecommons.org/ns#"
   xmlns:rdf="http://www.w3.org/1999/02/22-rdf-syntax-ns#"
   xmlns:svg="http://www.w3.org/2000/svg"
   xmlns="http://www.w3.org/2000/svg"
   xmlns:sodipodi="http://sodipodi.sourceforge.net/DTD/sodipodi-0.dtd"
   xmlns:inkscape="http://www.inkscape.org/namespaces/inkscape"
   width="42.701439mm"
   height="21.411459mm"
   viewBox="0 0 151.30431 75.867372"
   id="svg2"
   version="1.1"
   inkscape:version="0.91 r13725"
   sodipodi:docname="fein_black.svg"
   inkscape:export-filename="/Users/stv0g/workspace/rwth/fein/Website/img/logos/fein.png"
   inkscape:export-xdpi="90"
   inkscape:export-ydpi="90">
  <defs
     id="defs4">
    <clipPath
       id="clipPath3385"
       clipPathUnits="userSpaceOnUse">
      <path
         style="clip-rule:evenodd"
         inkscape:connector-curvature="0"
         id="path3387"
         d="M 9.12e-6,0 612.00001,0 l 0,792 -612.00000088,0 0,-792 z" />
    </clipPath>
    <clipPath
       id="clipPath3397"
       clipPathUnits="userSpaceOnUse">
      <path
         style="clip-rule:evenodd"
         inkscape:connector-curvature="0"
         id="path3399"
         d="M 9.12e-6,0 612.00001,0 l 0,792 -612.00000088,0 0,-792 z" />
    </clipPath>
    <clipPath
       id="clipPath3409"
       clipPathUnits="userSpaceOnUse">
      <path
         style="clip-rule:evenodd"
         inkscape:connector-curvature="0"
         id="path3411"
         d="M 9.12e-6,0 612.00001,0 l 0,792 -612.00000088,0 0,-792 z" />
    </clipPath>
    <clipPath
       id="clipPath3417"
       clipPathUnits="userSpaceOnUse">
      <path
         style="clip-rule:evenodd"
         inkscape:connector-curvature="0"
         id="path3419"
         d="M 9.12e-6,0 612.00001,0 l 0,792 -612.00000088,0 0,-792 z" />
    </clipPath>
    <clipPath
       id="clipPath3429"
       clipPathUnits="userSpaceOnUse">
      <path
         style="clip-rule:evenodd"
         inkscape:connector-curvature="0"
         id="path3431"
         d="M 9.12e-6,0 612.00001,0 l 0,792 -612.00000088,0 0,-792 z" />
    </clipPath>
    <clipPath
       id="clipPath3441"
       clipPathUnits="userSpaceOnUse">
      <path
         style="clip-rule:evenodd"
         inkscape:connector-curvature="0"
         id="path3443"
         d="M 9.12e-6,0 612.00001,0 l 0,792 -612.00000088,0 0,-792 z" />
    </clipPath>
    <clipPath
       id="clipPath3449"
       clipPathUnits="userSpaceOnUse">
      <path
         style="clip-rule:evenodd"
         inkscape:connector-curvature="0"
         id="path3451"
         d="M 9.12e-6,0 612.00001,0 l 0,792 -612.00000088,0 0,-792 z" />
    </clipPath>
    <clipPath
       id="clipPath3461"
       clipPathUnits="userSpaceOnUse">
      <path
         style="clip-rule:evenodd"
         inkscape:connector-curvature="0"
         id="path3463"
         d="M 9.12e-6,0 612.00001,0 l 0,792 -612.00000088,0 0,-792 z" />
    </clipPath>
    <clipPath
       id="clipPath3469"
       clipPathUnits="userSpaceOnUse">
      <path
         style="clip-rule:evenodd"
         inkscape:connector-curvature="0"
         id="path3471"
         d="M 9.12e-6,0 612.00001,0 l 0,792 -612.00000088,0 0,-792 z" />
    </clipPath>
    <clipPath
       id="clipPath3477"
       clipPathUnits="userSpaceOnUse">
      <path
         style="clip-rule:evenodd"
         inkscape:connector-curvature="0"
         id="path3479"
         d="M 9.12e-6,0 612.00001,0 l 0,792 -612.00000088,0 0,-792 z" />
    </clipPath>
    <clipPath
       id="clipPath3489"
       clipPathUnits="userSpaceOnUse">
      <path
         style="clip-rule:evenodd"
         inkscape:connector-curvature="0"
         id="path3491"
         d="M 9.12e-6,0 612.00001,0 l 0,792 -612.00000088,0 0,-792 z" />
    </clipPath>
    <clipPath
       id="clipPath3501"
       clipPathUnits="userSpaceOnUse">
      <path
         style="clip-rule:evenodd"
         inkscape:connector-curvature="0"
         id="path3503"
         d="M 9.12e-6,0 612.00001,0 l 0,792 -612.00000088,0 0,-792 z" />
    </clipPath>
    <clipPath
       id="clipPath3513"
       clipPathUnits="userSpaceOnUse">
      <path
         style="clip-rule:evenodd"
         inkscape:connector-curvature="0"
         id="path3515"
         d="M 9.12e-6,0 612.00001,0 l 0,792 -612.00000088,0 0,-792 z" />
    </clipPath>
    <clipPath
       id="clipPath3525"
       clipPathUnits="userSpaceOnUse">
      <path
         style="clip-rule:evenodd"
         inkscape:connector-curvature="0"
         id="path3527"
         d="M 9.12e-6,0 612.00001,0 l 0,792 -612.00000088,0 0,-792 z" />
    </clipPath>
    <clipPath
       id="clipPath3537"
       clipPathUnits="userSpaceOnUse">
      <path
         style="clip-rule:evenodd"
         inkscape:connector-curvature="0"
         id="path3539"
         d="M 9.12e-6,0 612.00001,0 l 0,792 -612.00000088,0 0,-792 z" />
    </clipPath>
    <clipPath
       id="clipPath3549"
       clipPathUnits="userSpaceOnUse">
      <path
         style="clip-rule:evenodd"
         inkscape:connector-curvature="0"
         id="path3551"
         d="M 9.12e-6,0 612.00001,0 l 0,792 -612.00000088,0 0,-792 z" />
    </clipPath>
    <clipPath
       id="clipPath3561"
       clipPathUnits="userSpaceOnUse">
      <path
         style="clip-rule:evenodd"
         inkscape:connector-curvature="0"
         id="path3563"
         d="M 9.12e-6,0 612.00001,0 l 0,792 -612.00000088,0 0,-792 z" />
    </clipPath>
    <clipPath
       id="clipPath3573"
       clipPathUnits="userSpaceOnUse">
      <path
         style="clip-rule:evenodd"
         inkscape:connector-curvature="0"
         id="path3575"
         d="M 9.12e-6,0 612.00001,0 l 0,792 -612.00000088,0 0,-792 z" />
    </clipPath>
    <clipPath
       id="clipPath3585"
       clipPathUnits="userSpaceOnUse">
      <path
         style="clip-rule:evenodd"
         inkscape:connector-curvature="0"
         id="path3587"
         d="M 9.12e-6,0 612.00001,0 l 0,792 -612.00000088,0 0,-792 z" />
    </clipPath>
    <clipPath
       id="clipPath3593"
       clipPathUnits="userSpaceOnUse">
      <path
         style="clip-rule:evenodd"
         inkscape:connector-curvature="0"
         id="path3595"
         d="M 9.12e-6,0 612.00001,0 l 0,792 -612.00000088,0 0,-792 z" />
    </clipPath>
    <clipPath
       id="clipPath3601"
       clipPathUnits="userSpaceOnUse">
      <path
         style="clip-rule:evenodd"
         inkscape:connector-curvature="0"
         id="path3603"
         d="M 9.12e-6,0 612.00001,0 l 0,792 -612.00000088,0 0,-792 z" />
    </clipPath>
    <clipPath
       id="clipPath3613"
       clipPathUnits="userSpaceOnUse">
      <path
         style="clip-rule:evenodd"
         inkscape:connector-curvature="0"
         id="path3615"
         d="M 9.12e-6,0 612.00001,0 l 0,792 -612.00000088,0 0,-792 z" />
    </clipPath>
    <clipPath
       id="clipPath3625"
       clipPathUnits="userSpaceOnUse">
      <path
         style="clip-rule:evenodd"
         inkscape:connector-curvature="0"
         id="path3627"
         d="M 9.12e-6,0 612.00001,0 l 0,792 -612.00000088,0 0,-792 z" />
    </clipPath>
    <clipPath
       id="clipPath3633"
       clipPathUnits="userSpaceOnUse">
      <path
         style="clip-rule:evenodd"
         inkscape:connector-curvature="0"
         id="path3635"
         d="M 9.12e-6,0 612.00001,0 l 0,792 -612.00000088,0 0,-792 z" />
    </clipPath>
    <clipPath
       id="clipPath3645"
       clipPathUnits="userSpaceOnUse">
      <path
         style="clip-rule:evenodd"
         inkscape:connector-curvature="0"
         id="path3647"
         d="M 9.12e-6,0 612.00001,0 l 0,792 -612.00000088,0 0,-792 z" />
    </clipPath>
    <clipPath
       id="clipPath3657"
       clipPathUnits="userSpaceOnUse">
      <path
         style="clip-rule:evenodd"
         inkscape:connector-curvature="0"
         id="path3659"
         d="M 9.12e-6,0 612.00001,0 l 0,792 -612.00000088,0 0,-792 z" />
    </clipPath>
    <clipPath
       id="clipPath3665"
       clipPathUnits="userSpaceOnUse">
      <path
         style="clip-rule:evenodd"
         inkscape:connector-curvature="0"
         id="path3667"
         d="M 9.12e-6,0 612.00001,0 l 0,792 -612.00000088,0 0,-792 z" />
    </clipPath>
    <clipPath
       id="clipPath3677"
       clipPathUnits="userSpaceOnUse">
      <path
         style="clip-rule:evenodd"
         inkscape:connector-curvature="0"
         id="path3679"
         d="M 9.12e-6,0 612.00001,0 l 0,792 -612.00000088,0 0,-792 z" />
    </clipPath>
    <clipPath
       id="clipPath3685"
       clipPathUnits="userSpaceOnUse">
      <path
         style="clip-rule:evenodd"
         inkscape:connector-curvature="0"
         id="path3687"
         d="M 9.12e-6,0 612.00001,0 l 0,792 -612.00000088,0 0,-792 z" />
    </clipPath>
    <clipPath
       id="clipPath3693"
       clipPathUnits="userSpaceOnUse">
      <path
         style="clip-rule:evenodd"
         inkscape:connector-curvature="0"
         id="path3695"
         d="M 9.12e-6,0 612.00001,0 l 0,792 -612.00000088,0 0,-792 z" />
    </clipPath>
    <clipPath
       id="clipPath3705"
       clipPathUnits="userSpaceOnUse">
      <path
         style="clip-rule:evenodd"
         inkscape:connector-curvature="0"
         id="path3707"
         d="M 9.12e-6,0 612.00001,0 l 0,792 -612.00000088,0 0,-792 z" />
    </clipPath>
    <clipPath
       id="clipPath3717"
       clipPathUnits="userSpaceOnUse">
      <path
         style="clip-rule:evenodd"
         inkscape:connector-curvature="0"
         id="path3719"
         d="M 9.12e-6,0 612.00001,0 l 0,792 -612.00000088,0 0,-792 z" />
    </clipPath>
    <clipPath
       id="clipPath3729"
       clipPathUnits="userSpaceOnUse">
      <path
         style="clip-rule:evenodd"
         inkscape:connector-curvature="0"
         id="path3731"
         d="M 9.12e-6,0 612.00001,0 l 0,792 -612.00000088,0 0,-792 z" />
    </clipPath>
    <clipPath
       id="clipPath3741"
       clipPathUnits="userSpaceOnUse">
      <path
         style="clip-rule:evenodd"
         inkscape:connector-curvature="0"
         id="path3743"
         d="M 9.12e-6,0 612.00001,0 l 0,792 -612.00000088,0 0,-792 z" />
    </clipPath>
    <clipPath
       id="clipPath3753"
       clipPathUnits="userSpaceOnUse">
      <path
         style="clip-rule:evenodd"
         inkscape:connector-curvature="0"
         id="path3755"
         d="M 9.12e-6,0 612.00001,0 l 0,792 -612.00000088,0 0,-792 z" />
    </clipPath>
    <clipPath
       id="clipPath3761"
       clipPathUnits="userSpaceOnUse">
      <path
         style="clip-rule:evenodd"
         inkscape:connector-curvature="0"
         id="path3763"
         d="M 9.12e-6,0 612.00001,0 l 0,792 -612.00000088,0 0,-792 z" />
    </clipPath>
    <clipPath
       id="clipPath3773"
       clipPathUnits="userSpaceOnUse">
      <path
         style="clip-rule:evenodd"
         inkscape:connector-curvature="0"
         id="path3775"
         d="M 9.12e-6,0 612.00001,0 l 0,792 -612.00000088,0 0,-792 z" />
    </clipPath>
    <clipPath
       id="clipPath3781"
       clipPathUnits="userSpaceOnUse">
      <path
         style="clip-rule:evenodd"
         inkscape:connector-curvature="0"
         id="path3783"
         d="M 9.12e-6,0 612.00001,0 l 0,792 -612.00000088,0 0,-792 z" />
    </clipPath>
    <clipPath
       id="clipPath3793"
       clipPathUnits="userSpaceOnUse">
      <path
         style="clip-rule:evenodd"
         inkscape:connector-curvature="0"
         id="path3795"
         d="M 9.12e-6,0 612.00001,0 l 0,792 -612.00000088,0 0,-792 z" />
    </clipPath>
    <clipPath
       id="clipPath3805"
       clipPathUnits="userSpaceOnUse">
      <path
         style="clip-rule:evenodd"
         inkscape:connector-curvature="0"
         id="path3807"
         d="M 9.12e-6,0 612.00001,0 l 0,792 -612.00000088,0 0,-792 z" />
    </clipPath>
    <clipPath
       id="clipPath3817"
       clipPathUnits="userSpaceOnUse">
      <path
         style="clip-rule:evenodd"
         inkscape:connector-curvature="0"
         id="path3819"
         d="M 9.12e-6,0 612.00001,0 l 0,792 -612.00000088,0 0,-792 z" />
    </clipPath>
    <clipPath
       id="clipPath3829"
       clipPathUnits="userSpaceOnUse">
      <path
         style="clip-rule:evenodd"
         inkscape:connector-curvature="0"
         id="path3831"
         d="M 9.12e-6,0 612.00001,0 l 0,792 -612.00000088,0 0,-792 z" />
    </clipPath>
    <clipPath
       id="clipPath3841"
       clipPathUnits="userSpaceOnUse">
      <path
         style="clip-rule:evenodd"
         inkscape:connector-curvature="0"
         id="path3843"
         d="M 9.12e-6,0 612.00001,0 l 0,792 -612.00000088,0 0,-792 z" />
    </clipPath>
    <clipPath
       id="clipPath3853"
       clipPathUnits="userSpaceOnUse">
      <path
         style="clip-rule:evenodd"
         inkscape:connector-curvature="0"
         id="path3855"
         d="M 9.12e-6,0 612.00001,0 l 0,792 -612.00000088,0 0,-792 z" />
    </clipPath>
    <clipPath
       id="clipPath3861"
       clipPathUnits="userSpaceOnUse">
      <path
         style="clip-rule:evenodd"
         inkscape:connector-curvature="0"
         id="path3863"
         d="M 9.12e-6,0 612.00001,0 l 0,792 -612.00000088,0 0,-792 z" />
    </clipPath>
    <clipPath
       id="clipPath3873"
       clipPathUnits="userSpaceOnUse">
      <path
         style="clip-rule:evenodd"
         inkscape:connector-curvature="0"
         id="path3875"
         d="M 9.12e-6,0 612.00001,0 l 0,792 -612.00000088,0 0,-792 z" />
    </clipPath>
    <clipPath
       id="clipPath3885"
       clipPathUnits="userSpaceOnUse">
      <path
         style="clip-rule:evenodd"
         inkscape:connector-curvature="0"
         id="path3887"
         d="M 9.12e-6,0 612.00001,0 l 0,792 -612.00000088,0 0,-792 z" />
    </clipPath>
    <clipPath
       id="clipPath3897"
       clipPathUnits="userSpaceOnUse">
      <path
         style="clip-rule:evenodd"
         inkscape:connector-curvature="0"
         id="path3899"
         d="M 9.12e-6,0 612.00001,0 l 0,792 -612.00000088,0 0,-792 z" />
    </clipPath>
    <clipPath
       id="clipPath3909"
       clipPathUnits="userSpaceOnUse">
      <path
         style="clip-rule:evenodd"
         inkscape:connector-curvature="0"
         id="path3911"
         d="M 9.12e-6,0 612.00001,0 l 0,792 -612.00000088,0 0,-792 z" />
    </clipPath>
    <clipPath
       id="clipPath3921"
       clipPathUnits="userSpaceOnUse">
      <path
         style="clip-rule:evenodd"
         inkscape:connector-curvature="0"
         id="path3923"
         d="M 9.12e-6,0 612.00001,0 l 0,792 -612.00000088,0 0,-792 z" />
    </clipPath>
    <clipPath
       id="clipPath3933"
       clipPathUnits="userSpaceOnUse">
      <path
         style="clip-rule:evenodd"
         inkscape:connector-curvature="0"
         id="path3935"
         d="M 9.12e-6,0 612.00001,0 l 0,792 -612.00000088,0 0,-792 z" />
    </clipPath>
    <clipPath
       id="clipPath3941"
       clipPathUnits="userSpaceOnUse">
      <path
         style="clip-rule:evenodd"
         inkscape:connector-curvature="0"
         id="path3943"
         d="M 9.12e-6,0 612.00001,0 l 0,792 -612.00000088,0 0,-792 z" />
    </clipPath>
    <clipPath
       id="clipPath3953"
       clipPathUnits="userSpaceOnUse">
      <path
         style="clip-rule:evenodd"
         inkscape:connector-curvature="0"
         id="path3955"
         d="M 9.12e-6,0 612.00001,0 l 0,792 -612.00000088,0 0,-792 z" />
    </clipPath>
    <clipPath
       id="clipPath3961"
       clipPathUnits="userSpaceOnUse">
      <path
         style="clip-rule:evenodd"
         inkscape:connector-curvature="0"
         id="path3963"
         d="M 9.12e-6,0 612.00001,0 l 0,792 -612.00000088,0 0,-792 z" />
    </clipPath>
    <clipPath
       id="clipPath3973"
       clipPathUnits="userSpaceOnUse">
      <path
         style="clip-rule:evenodd"
         inkscape:connector-curvature="0"
         id="path3975"
         d="M 9.12e-6,0 612.00001,0 l 0,792 -612.00000088,0 0,-792 z" />
    </clipPath>
    <clipPath
       id="clipPath3981"
       clipPathUnits="userSpaceOnUse">
      <path
         style="clip-rule:evenodd"
         inkscape:connector-curvature="0"
         id="path3983"
         d="M 9.12e-6,0 612.00001,0 l 0,792 -612.00000088,0 0,-792 z" />
    </clipPath>
    <clipPath
       id="clipPath3993"
       clipPathUnits="userSpaceOnUse">
      <path
         style="clip-rule:evenodd"
         inkscape:connector-curvature="0"
         id="path3995"
         d="M 9.12e-6,0 612.00001,0 l 0,792 -612.00000088,0 0,-792 z" />
    </clipPath>
    <clipPath
       id="clipPath4005"
       clipPathUnits="userSpaceOnUse">
      <path
         style="clip-rule:evenodd"
         inkscape:connector-curvature="0"
         id="path4007"
         d="M 9.12e-6,0 612.00001,0 l 0,792 -612.00000088,0 0,-792 z" />
    </clipPath>
    <clipPath
       id="clipPath4017"
       clipPathUnits="userSpaceOnUse">
      <path
         style="clip-rule:evenodd"
         inkscape:connector-curvature="0"
         id="path4019"
         d="M 9.12e-6,0 612.00001,0 l 0,792 -612.00000088,0 0,-792 z" />
    </clipPath>
    <clipPath
       id="clipPath4029"
       clipPathUnits="userSpaceOnUse">
      <path
         style="clip-rule:evenodd"
         inkscape:connector-curvature="0"
         id="path4031"
         d="M 9.12e-6,0 612.00001,0 l 0,792 -612.00000088,0 0,-792 z" />
    </clipPath>
    <clipPath
       id="clipPath4037"
       clipPathUnits="userSpaceOnUse">
      <path
         style="clip-rule:evenodd"
         inkscape:connector-curvature="0"
         id="path4039"
         d="M 9.12e-6,0 612.00001,0 l 0,792 -612.00000088,0 0,-792 z" />
    </clipPath>
    <clipPath
       id="clipPath4049"
       clipPathUnits="userSpaceOnUse">
      <path
         style="clip-rule:evenodd"
         inkscape:connector-curvature="0"
         id="path4051"
         d="M 9.12e-6,0 612.00001,0 l 0,792 -612.00000088,0 0,-792 z" />
    </clipPath>
    <clipPath
       id="clipPath4057"
       clipPathUnits="userSpaceOnUse">
      <path
         style="clip-rule:evenodd"
         inkscape:connector-curvature="0"
         id="path4059"
         d="M 9.12e-6,0 612.00001,0 l 0,792 -612.00000088,0 0,-792 z" />
    </clipPath>
    <clipPath
       id="clipPath4065"
       clipPathUnits="userSpaceOnUse">
      <path
         style="clip-rule:evenodd"
         inkscape:connector-curvature="0"
         id="path4067"
         d="M 9.12e-6,0 612.00001,0 l 0,792 -612.00000088,0 0,-792 z" />
    </clipPath>
    <clipPath
       id="clipPath4077"
       clipPathUnits="userSpaceOnUse">
      <path
         style="clip-rule:evenodd"
         inkscape:connector-curvature="0"
         id="path4079"
         d="M 9.12e-6,0 612.00001,0 l 0,792 -612.00000088,0 0,-792 z" />
    </clipPath>
    <clipPath
       id="clipPath4085"
       clipPathUnits="userSpaceOnUse">
      <path
         style="clip-rule:evenodd"
         inkscape:connector-curvature="0"
         id="path4087"
         d="M 9.12e-6,0 612.00001,0 l 0,792 -612.00000088,0 0,-792 z" />
    </clipPath>
    <clipPath
       id="clipPath4097"
       clipPathUnits="userSpaceOnUse">
      <path
         style="clip-rule:evenodd"
         inkscape:connector-curvature="0"
         id="path4099"
         d="M 9.12e-6,0 612.00001,0 l 0,792 -612.00000088,0 0,-792 z" />
    </clipPath>
    <clipPath
       id="clipPath4105"
       clipPathUnits="userSpaceOnUse">
      <path
         style="clip-rule:evenodd"
         inkscape:connector-curvature="0"
         id="path4107"
         d="M 9.12e-6,0 612.00001,0 l 0,792 -612.00000088,0 0,-792 z" />
    </clipPath>
    <clipPath
       id="clipPath4117"
       clipPathUnits="userSpaceOnUse">
      <path
         style="clip-rule:evenodd"
         inkscape:connector-curvature="0"
         id="path4119"
         d="M 9.12e-6,0 612.00001,0 l 0,792 -612.00000088,0 0,-792 z" />
    </clipPath>
    <clipPath
       id="clipPath4129"
       clipPathUnits="userSpaceOnUse">
      <path
         style="clip-rule:evenodd"
         inkscape:connector-curvature="0"
         id="path4131"
         d="M 9.12e-6,0 612.00001,0 l 0,792 -612.00000088,0 0,-792 z" />
    </clipPath>
    <clipPath
       id="clipPath4137"
       clipPathUnits="userSpaceOnUse">
      <path
         style="clip-rule:evenodd"
         inkscape:connector-curvature="0"
         id="path4139"
         d="M 9.12e-6,0 612.00001,0 l 0,792 -612.00000088,0 0,-792 z" />
    </clipPath>
    <clipPath
       id="clipPath4149"
       clipPathUnits="userSpaceOnUse">
      <path
         style="clip-rule:evenodd"
         inkscape:connector-curvature="0"
         id="path4151"
         d="M 9.12e-6,0 612.00001,0 l 0,792 -612.00000088,0 0,-792 z" />
    </clipPath>
    <clipPath
       id="clipPath4161"
       clipPathUnits="userSpaceOnUse">
      <path
         style="clip-rule:evenodd"
         inkscape:connector-curvature="0"
         id="path4163"
         d="M 9.12e-6,0 612.00001,0 l 0,792 -612.00000088,0 0,-792 z" />
    </clipPath>
    <clipPath
       id="clipPath4173"
       clipPathUnits="userSpaceOnUse">
      <path
         style="clip-rule:evenodd"
         inkscape:connector-curvature="0"
         id="path4175"
         d="M 9.12e-6,0 612.00001,0 l 0,792 -612.00000088,0 0,-792 z" />
    </clipPath>
    <clipPath
       id="clipPath4181"
       clipPathUnits="userSpaceOnUse">
      <path
         style="clip-rule:evenodd"
         inkscape:connector-curvature="0"
         id="path4183"
         d="M 9.12e-6,0 612.00001,0 l 0,792 -612.00000088,0 0,-792 z" />
    </clipPath>
    <clipPath
       id="clipPath4193"
       clipPathUnits="userSpaceOnUse">
      <path
         style="clip-rule:evenodd"
         inkscape:connector-curvature="0"
         id="path4195"
         d="M 9.12e-6,0 612.00001,0 l 0,792 -612.00000088,0 0,-792 z" />
    </clipPath>
    <clipPath
       id="clipPath4205"
       clipPathUnits="userSpaceOnUse">
      <path
         style="clip-rule:evenodd"
         inkscape:connector-curvature="0"
         id="path4207"
         d="M 9.12e-6,0 612.00001,0 l 0,792 -612.00000088,0 0,-792 z" />
    </clipPath>
    <clipPath
       id="clipPath4213"
       clipPathUnits="userSpaceOnUse">
      <path
         style="clip-rule:evenodd"
         inkscape:connector-curvature="0"
         id="path4215"
         d="M 9.12e-6,0 612.00001,0 l 0,792 -612.00000088,0 0,-792 z" />
    </clipPath>
    <clipPath
       id="clipPath4225"
       clipPathUnits="userSpaceOnUse">
      <path
         style="clip-rule:evenodd"
         inkscape:connector-curvature="0"
         id="path4227"
         d="M 9.12e-6,0 612.00001,0 l 0,792 -612.00000088,0 0,-792 z" />
    </clipPath>
    <clipPath
       id="clipPath4233"
       clipPathUnits="userSpaceOnUse">
      <path
         style="clip-rule:evenodd"
         inkscape:connector-curvature="0"
         id="path4235"
         d="M 9.12e-6,0 612.00001,0 l 0,792 -612.00000088,0 0,-792 z" />
    </clipPath>
    <clipPath
       id="clipPath4245"
       clipPathUnits="userSpaceOnUse">
      <path
         style="clip-rule:evenodd"
         inkscape:connector-curvature="0"
         id="path4247"
         d="M 9.12e-6,0 612.00001,0 l 0,792 -612.00000088,0 0,-792 z" />
    </clipPath>
    <clipPath
       id="clipPath4253"
       clipPathUnits="userSpaceOnUse">
      <path
         style="clip-rule:evenodd"
         inkscape:connector-curvature="0"
         id="path4255"
         d="M 9.12e-6,0 612.00001,0 l 0,792 -612.00000088,0 0,-792 z" />
    </clipPath>
    <clipPath
       id="clipPath4265"
       clipPathUnits="userSpaceOnUse">
      <path
         style="clip-rule:evenodd"
         inkscape:connector-curvature="0"
         id="path4267"
         d="M 9.12e-6,0 612.00001,0 l 0,792 -612.00000088,0 0,-792 z" />
    </clipPath>
    <clipPath
       id="clipPath4277"
       clipPathUnits="userSpaceOnUse">
      <path
         style="clip-rule:evenodd"
         inkscape:connector-curvature="0"
         id="path4279"
         d="M 9.12e-6,0 612.00001,0 l 0,792 -612.00000088,0 0,-792 z" />
    </clipPath>
    <clipPath
       id="clipPath4285"
       clipPathUnits="userSpaceOnUse">
      <path
         style="clip-rule:evenodd"
         inkscape:connector-curvature="0"
         id="path4287"
         d="M 9.12e-6,0 612.00001,0 l 0,792 -612.00000088,0 0,-792 z" />
    </clipPath>
    <clipPath
       id="clipPath4297"
       clipPathUnits="userSpaceOnUse">
      <path
         style="clip-rule:evenodd"
         inkscape:connector-curvature="0"
         id="path4299"
         d="M 9.12e-6,0 612.00001,0 l 0,792 -612.00000088,0 0,-792 z" />
    </clipPath>
    <clipPath
       id="clipPath4305"
       clipPathUnits="userSpaceOnUse">
      <path
         style="clip-rule:evenodd"
         inkscape:connector-curvature="0"
         id="path4307"
         d="M 9.12e-6,0 612.00001,0 l 0,792 -612.00000088,0 0,-792 z" />
    </clipPath>
    <clipPath
       id="clipPath4313"
       clipPathUnits="userSpaceOnUse">
      <path
         style="clip-rule:evenodd"
         inkscape:connector-curvature="0"
         id="path4315"
         d="M 9.12e-6,0 612.00001,0 l 0,792 -612.00000088,0 0,-792 z" />
    </clipPath>
    <clipPath
       id="clipPath4325"
       clipPathUnits="userSpaceOnUse">
      <path
         style="clip-rule:evenodd"
         inkscape:connector-curvature="0"
         id="path4327"
         d="M 9.12e-6,0 612.00001,0 l 0,792 -612.00000088,0 0,-792 z" />
    </clipPath>
    <clipPath
       id="clipPath4333"
       clipPathUnits="userSpaceOnUse">
      <path
         style="clip-rule:evenodd"
         inkscape:connector-curvature="0"
         id="path4335"
         d="M 9.12e-6,0 612.00001,0 l 0,792 -612.00000088,0 0,-792 z" />
    </clipPath>
    <clipPath
       id="clipPath4345"
       clipPathUnits="userSpaceOnUse">
      <path
         style="clip-rule:evenodd"
         inkscape:connector-curvature="0"
         id="path4347"
         d="M 9.12e-6,0 612.00001,0 l 0,792 -612.00000088,0 0,-792 z" />
    </clipPath>
    <clipPath
       id="clipPath4357"
       clipPathUnits="userSpaceOnUse">
      <path
         style="clip-rule:evenodd"
         inkscape:connector-curvature="0"
         id="path4359"
         d="M 9.12e-6,0 612.00001,0 l 0,792 -612.00000088,0 0,-792 z" />
    </clipPath>
    <clipPath
       id="clipPath4369"
       clipPathUnits="userSpaceOnUse">
      <path
         style="clip-rule:evenodd"
         inkscape:connector-curvature="0"
         id="path4371"
         d="M 9.12e-6,0 612.00001,0 l 0,792 -612.00000088,0 0,-792 z" />
    </clipPath>
    <clipPath
       id="clipPath4381"
       clipPathUnits="userSpaceOnUse">
      <path
         style="clip-rule:evenodd"
         inkscape:connector-curvature="0"
         id="path4383"
         d="M 9.12e-6,0 612.00001,0 l 0,792 -612.00000088,0 0,-792 z" />
    </clipPath>
    <clipPath
       id="clipPath4389"
       clipPathUnits="userSpaceOnUse">
      <path
         style="clip-rule:evenodd"
         inkscape:connector-curvature="0"
         id="path4391"
         d="M 9.12e-6,0 612.00001,0 l 0,792 -612.00000088,0 0,-792 z" />
    </clipPath>
    <clipPath
       id="clipPath4401"
       clipPathUnits="userSpaceOnUse">
      <path
         style="clip-rule:evenodd"
         inkscape:connector-curvature="0"
         id="path4403"
         d="M 9.12e-6,0 612.00001,0 l 0,792 -612.00000088,0 0,-792 z" />
    </clipPath>
    <clipPath
       id="clipPath4409"
       clipPathUnits="userSpaceOnUse">
      <path
         style="clip-rule:evenodd"
         inkscape:connector-curvature="0"
         id="path4411"
         d="M 9.12e-6,0 612.00001,0 l 0,792 -612.00000088,0 0,-792 z" />
    </clipPath>
    <clipPath
       id="clipPath4421"
       clipPathUnits="userSpaceOnUse">
      <path
         style="clip-rule:evenodd"
         inkscape:connector-curvature="0"
         id="path4423"
         d="M 9.12e-6,0 612.00001,0 l 0,792 -612.00000088,0 0,-792 z" />
    </clipPath>
    <clipPath
       id="clipPath4429"
       clipPathUnits="userSpaceOnUse">
      <path
         style="clip-rule:evenodd"
         inkscape:connector-curvature="0"
         id="path4431"
         d="M 9.12e-6,0 612.00001,0 l 0,792 -612.00000088,0 0,-792 z" />
    </clipPath>
    <clipPath
       id="clipPath4441"
       clipPathUnits="userSpaceOnUse">
      <path
         style="clip-rule:evenodd"
         inkscape:connector-curvature="0"
         id="path4443"
         d="M 9.12e-6,0 612.00001,0 l 0,792 -612.00000088,0 0,-792 z" />
    </clipPath>
    <clipPath
       id="clipPath4449"
       clipPathUnits="userSpaceOnUse">
      <path
         style="clip-rule:evenodd"
         inkscape:connector-curvature="0"
         id="path4451"
         d="M 9.12e-6,0 612.00001,0 l 0,792 -612.00000088,0 0,-792 z" />
    </clipPath>
    <clipPath
       id="clipPath4461"
       clipPathUnits="userSpaceOnUse">
      <path
         style="clip-rule:evenodd"
         inkscape:connector-curvature="0"
         id="path4463"
         d="M 9.12e-6,0 612.00001,0 l 0,792 -612.00000088,0 0,-792 z" />
    </clipPath>
    <clipPath
       id="clipPath4473"
       clipPathUnits="userSpaceOnUse">
      <path
         style="clip-rule:evenodd"
         inkscape:connector-curvature="0"
         id="path4475"
         d="M 9.12e-6,0 612.00001,0 l 0,792 -612.00000088,0 0,-792 z" />
    </clipPath>
    <clipPath
       id="clipPath4485"
       clipPathUnits="userSpaceOnUse">
      <path
         style="clip-rule:evenodd"
         inkscape:connector-curvature="0"
         id="path4487"
         d="M 9.12e-6,0 612.00001,0 l 0,792 -612.00000088,0 0,-792 z" />
    </clipPath>
    <clipPath
       id="clipPath4497"
       clipPathUnits="userSpaceOnUse">
      <path
         style="clip-rule:evenodd"
         inkscape:connector-curvature="0"
         id="path4499"
         d="M 9.12e-6,0 612.00001,0 l 0,792 -612.00000088,0 0,-792 z" />
    </clipPath>
    <clipPath
       id="clipPath4505"
       clipPathUnits="userSpaceOnUse">
      <path
         style="clip-rule:evenodd"
         inkscape:connector-curvature="0"
         id="path4507"
         d="M 9.12e-6,0 612.00001,0 l 0,792 -612.00000088,0 0,-792 z" />
    </clipPath>
    <clipPath
       id="clipPath4517"
       clipPathUnits="userSpaceOnUse">
      <path
         style="clip-rule:evenodd"
         inkscape:connector-curvature="0"
         id="path4519"
         d="M 9.12e-6,0 612.00001,0 l 0,792 -612.00000088,0 0,-792 z" />
    </clipPath>
    <clipPath
       id="clipPath4529"
       clipPathUnits="userSpaceOnUse">
      <path
         style="clip-rule:evenodd"
         inkscape:connector-curvature="0"
         id="path4531"
         d="M 9.12e-6,0 612.00001,0 l 0,792 -612.00000088,0 0,-792 z" />
    </clipPath>
    <clipPath
       id="clipPath4541"
       clipPathUnits="userSpaceOnUse">
      <path
         style="clip-rule:evenodd"
         inkscape:connector-curvature="0"
         id="path4543"
         d="M 9.12e-6,0 612.00001,0 l 0,792 -612.00000088,0 0,-792 z" />
    </clipPath>
    <clipPath
       id="clipPath4549"
       clipPathUnits="userSpaceOnUse">
      <path
         style="clip-rule:evenodd"
         inkscape:connector-curvature="0"
         id="path4551"
         d="M 9.12e-6,0 612.00001,0 l 0,792 -612.00000088,0 0,-792 z" />
    </clipPath>
    <clipPath
       id="clipPath4561"
       clipPathUnits="userSpaceOnUse">
      <path
         style="clip-rule:evenodd"
         inkscape:connector-curvature="0"
         id="path4563"
         d="M 9.12e-6,0 612.00001,0 l 0,792 -612.00000088,0 0,-792 z" />
    </clipPath>
    <clipPath
       id="clipPath4573"
       clipPathUnits="userSpaceOnUse">
      <path
         style="clip-rule:evenodd"
         inkscape:connector-curvature="0"
         id="path4575"
         d="M 9.12e-6,0 612.00001,0 l 0,792 -612.00000088,0 0,-792 z" />
    </clipPath>
    <clipPath
       id="clipPath4585"
       clipPathUnits="userSpaceOnUse">
      <path
         style="clip-rule:evenodd"
         inkscape:connector-curvature="0"
         id="path4587"
         d="M 9.12e-6,0 612.00001,0 l 0,792 -612.00000088,0 0,-792 z" />
    </clipPath>
    <clipPath
       id="clipPath4597"
       clipPathUnits="userSpaceOnUse">
      <path
         style="clip-rule:evenodd"
         inkscape:connector-curvature="0"
         id="path4599"
         d="M 9.12e-6,0 612.00001,0 l 0,792 -612.00000088,0 0,-792 z" />
    </clipPath>
    <clipPath
       id="clipPath4605"
       clipPathUnits="userSpaceOnUse">
      <path
         style="clip-rule:evenodd"
         inkscape:connector-curvature="0"
         id="path4607"
         d="M 9.12e-6,0 612.00001,0 l 0,792 -612.00000088,0 0,-792 z" />
    </clipPath>
    <clipPath
       id="clipPath4617"
       clipPathUnits="userSpaceOnUse">
      <path
         style="clip-rule:evenodd"
         inkscape:connector-curvature="0"
         id="path4619"
         d="M 9.12e-6,0 612.00001,0 l 0,792 -612.00000088,0 0,-792 z" />
    </clipPath>
    <clipPath
       id="clipPath4629"
       clipPathUnits="userSpaceOnUse">
      <path
         style="clip-rule:evenodd"
         inkscape:connector-curvature="0"
         id="path4631"
         d="M 9.12e-6,0 612.00001,0 l 0,792 -612.00000088,0 0,-792 z" />
    </clipPath>
    <clipPath
       id="clipPath4637"
       clipPathUnits="userSpaceOnUse">
      <path
         style="clip-rule:evenodd"
         inkscape:connector-curvature="0"
         id="path4639"
         d="M 9.12e-6,0 612.00001,0 l 0,792 -612.00000088,0 0,-792 z" />
    </clipPath>
    <clipPath
       id="clipPath4645"
       clipPathUnits="userSpaceOnUse">
      <path
         style="clip-rule:evenodd"
         inkscape:connector-curvature="0"
         id="path4647"
         d="M 9.12e-6,0 612.00001,0 l 0,792 -612.00000088,0 0,-792 z" />
    </clipPath>
    <clipPath
       id="clipPath4657"
       clipPathUnits="userSpaceOnUse">
      <path
         style="clip-rule:evenodd"
         inkscape:connector-curvature="0"
         id="path4659"
         d="M 9.12e-6,0 612.00001,0 l 0,792 -612.00000088,0 0,-792 z" />
    </clipPath>
    <clipPath
       id="clipPath4669"
       clipPathUnits="userSpaceOnUse">
      <path
         style="clip-rule:evenodd"
         inkscape:connector-curvature="0"
         id="path4671"
         d="M 9.12e-6,0 612.00001,0 l 0,792 -612.00000088,0 0,-792 z" />
    </clipPath>
    <clipPath
       id="clipPath4681"
       clipPathUnits="userSpaceOnUse">
      <path
         style="clip-rule:evenodd"
         inkscape:connector-curvature="0"
         id="path4683"
         d="M 9.12e-6,0 612.00001,0 l 0,792 -612.00000088,0 0,-792 z" />
    </clipPath>
    <clipPath
       id="clipPath4693"
       clipPathUnits="userSpaceOnUse">
      <path
         style="clip-rule:evenodd"
         inkscape:connector-curvature="0"
         id="path4695"
         d="M 9.12e-6,0 612.00001,0 l 0,792 -612.00000088,0 0,-792 z" />
    </clipPath>
    <clipPath
       id="clipPath4705"
       clipPathUnits="userSpaceOnUse">
      <path
         style="clip-rule:evenodd"
         inkscape:connector-curvature="0"
         id="path4707"
         d="M 9.12e-6,0 612.00001,0 l 0,792 -612.00000088,0 0,-792 z" />
    </clipPath>
    <clipPath
       id="clipPath4713"
       clipPathUnits="userSpaceOnUse">
      <path
         style="clip-rule:evenodd"
         inkscape:connector-curvature="0"
         id="path4715"
         d="M -9.12e-6,387.24 611.99999,387.24 l 0,163.2 L -9.12e-6,550.44 l 0,-163.2 z" />
    </clipPath>
    <clipPath
       id="clipPath4723"
       clipPathUnits="userSpaceOnUse">
      <path
         inkscape:connector-curvature="0"
         id="path4725"
         d="m 0,0 335.99,0 0,498.99 L 0,498.99 0,0 Z" />
    </clipPath>
    <clipPath
       id="clipPath4741"
       clipPathUnits="userSpaceOnUse">
      <path
         style="clip-rule:evenodd"
         inkscape:connector-curvature="0"
         id="path4743"
         d="M -8.117e-6,792 612,792 612,2.4414e-4 l -612.000032665,0" />
    </clipPath>
    <clipPath
       id="clipPath4751"
       clipPathUnits="userSpaceOnUse">
      <path
         style="clip-rule:evenodd"
         inkscape:connector-curvature="0"
         id="path4753"
         d="M 3.8132e-5,792 612,792 612,2.4414e-4 l -611.999968434,0" />
    </clipPath>
    <clipPath
       id="clipPath4761"
       clipPathUnits="userSpaceOnUse">
      <path
         style="clip-rule:evenodd"
         inkscape:connector-curvature="0"
         id="path4763"
         d="M 2.3514e-5,792 612,792 612,2.4414e-4 -1.034e-6,2.4414e-4" />
    </clipPath>
    <clipPath
       id="clipPath4783"
       clipPathUnits="userSpaceOnUse">
      <path
         style="clip-rule:evenodd"
         inkscape:connector-curvature="0"
         id="path4785"
         d="m 441.55,704.86 170.45,0 0,64.944 -170.45,0 0,-64.944 z" />
    </clipPath>
    <clipPath
       id="clipPath4791"
       clipPathUnits="userSpaceOnUse">
      <path
         style="clip-rule:evenodd"
         inkscape:connector-curvature="0"
         id="path4793"
         d="m 441.55,704.86 187.37,0 0,64.944 -187.37,0 0,-64.944 z" />
    </clipPath>
    <clipPath
       id="clipPath4803"
       clipPathUnits="userSpaceOnUse">
      <path
         style="clip-rule:evenodd"
         inkscape:connector-curvature="0"
         id="path4805"
         d="m 441.55,704.86 187.37,0 0,64.944 -187.37,0 0,-64.944 z" />
    </clipPath>
    <clipPath
       id="clipPath4811"
       clipPathUnits="userSpaceOnUse">
      <path
         style="clip-rule:evenodd"
         inkscape:connector-curvature="0"
         id="path4813"
         d="m 441.55,704.86 187.37,0 0,64.944 -187.37,0 0,-64.944 z" />
    </clipPath>
    <clipPath
       id="clipPath4819"
       clipPathUnits="userSpaceOnUse">
      <path
         style="clip-rule:evenodd"
         inkscape:connector-curvature="0"
         id="path4821"
         d="m 441.55,704.86 187.37,0 0,64.944 -187.37,0 0,-64.944 z" />
    </clipPath>
    <clipPath
       id="clipPath4831"
       clipPathUnits="userSpaceOnUse">
      <path
         style="clip-rule:evenodd"
         inkscape:connector-curvature="0"
         id="path4833"
         d="m 441.55,704.86 187.37,0 0,64.944 -187.37,0 0,-64.944 z" />
    </clipPath>
    <clipPath
       id="clipPath4839"
       clipPathUnits="userSpaceOnUse">
      <path
         style="clip-rule:evenodd"
         inkscape:connector-curvature="0"
         id="path4841"
         d="M 1.3943e-5,792 612,792 612,2.4414e-4 l -612.000007609,0" />
    </clipPath>
    <clipPath
       id="clipPath4849"
       clipPathUnits="userSpaceOnUse">
      <path
         style="clip-rule:evenodd"
         inkscape:connector-curvature="0"
         id="path4851"
         d="M 1.6481e-5,792 612,792 612,2.4414e-4 l -611.999990085,0" />
    </clipPath>
    <clipPath
       id="clipPath4859"
       clipPathUnits="userSpaceOnUse">
      <path
         style="clip-rule:evenodd"
         inkscape:connector-curvature="0"
         id="path4861"
         d="M 5.0675e-5,792 612,792 612,3.0518e-4 3.8115e-5,2.4414e-4" />
    </clipPath>
    <clipPath
       id="clipPath4869"
       clipPathUnits="userSpaceOnUse">
      <path
         style="clip-rule:evenodd"
         inkscape:connector-curvature="0"
         id="path4871"
         d="M 3.5456e-5,792 612,792 612,3.0518e-4 2.2896e-5,2.4414e-4" />
    </clipPath>
    <clipPath
       id="clipPath4879"
       clipPathUnits="userSpaceOnUse">
      <path
         style="clip-rule:evenodd"
         inkscape:connector-curvature="0"
         id="path4881"
         d="M 9.908e-6,792 612,792 612,2.4414e-4 -5.649e-6,2.4414e-4" />
    </clipPath>
  </defs>
  <sodipodi:namedview
     id="base"
     pagecolor="#ffffff"
     bordercolor="#666666"
     borderopacity="1.0"
     inkscape:pageopacity="0.0"
     inkscape:pageshadow="2"
     inkscape:zoom="4.128282"
     inkscape:cx="92.797848"
     inkscape:cy="32.708848"
     inkscape:document-units="px"
     inkscape:current-layer="layer1"
     showgrid="false"
     fit-margin-top="0"
     fit-margin-left="0"
     fit-margin-right="0"
     fit-margin-bottom="0"
     inkscape:snap-bbox="true"
     inkscape:object-nodes="true"
     inkscape:bbox-nodes="true"
     inkscape:snap-intersection-paths="true"
     inkscape:snap-smooth-nodes="true"
     inkscape:window-width="1440"
     inkscape:window-height="856"
     inkscape:window-x="-2"
     inkscape:window-y="5"
     inkscape:window-maximized="0" />
  <metadata
     id="metadata7">
    <rdf:RDF>
      <cc:Work
         rdf:about="">
        <dc:format>image/svg+xml</dc:format>
        <dc:type
           rdf:resource="http://purl.org/dc/dcmitype/StillImage" />
        <dc:title></dc:title>
      </cc:Work>
    </rdf:RDF>
  </metadata>
  <g
     inkscape:label="Layer 1"
     inkscape:groupmode="layer"
     id="layer1"
     transform="translate(-485.31346,-103.89851)">
    <path
       sodipodi:nodetypes="cccc"
       d="m 489.7691,149.33601 10.70786,0 -4.40832,13.0625 -10.70786,0"
       style="fill:#ff5c5c;fill-opacity:1;fill-rule:evenodd;stroke:#a30000;stroke-width:1.25000012;stroke-miterlimit:4;stroke-dasharray:none;stroke-opacity:1"
       id="path4775"
       inkscape:connector-curvature="0" />
    <g
       id="g4787"
       transform="matrix(1.2891294,0,0,-1.2891294,-48.950486,1090.0198)"
       style="fill:#000000">
      <g
         id="g4789"
         clip-path="url(#clipPath4791)"
         style="fill:#000000">
        <g
           transform="matrix(1.0443179,0,-0.34807115,-0.95756286,0,0)"
           style="font-style:normal;font-variant:normal;font-weight:normal;font-stretch:normal;font-size:44.1397171px;font-family:arial;-inkscape-font-specification:arial;writing-mode:lr-tb;fill:#000000;fill-opacity:1;fill-rule:nonzero;stroke:none"
           id="text4795">
          <path
             d="m 201.39227,-764.32634 -9.57683,0 q 0.0415,-0.62187 0.24875,-1.40958 0.24874,-0.7877 0.7877,-1.49249 0.58042,-0.70479 1.4925,-1.16083 0.95353,-0.4975 2.36311,-0.4975 2.15583,0 3.19228,1.16083 1.07791,1.16083 1.49249,3.39957 z m -9.57683,3.73124 15.46389,0 q 0.16584,-2.48749 -0.41458,-4.76769 -0.58041,-2.2802 -1.90707,-4.0629 -1.28521,-1.7827 -3.31666,-2.81916 -2.03145,-1.07791 -4.76769,-1.07791 -2.44603,0 -4.47748,0.87062 -1.98999,0.87062 -3.44103,2.40457 -1.45103,1.4925 -2.23874,3.56541 -0.7877,2.07291 -0.7877,4.47748 0,2.48749 0.74624,4.5604 0.78771,2.07291 2.19729,3.5654 1.40957,1.4925 3.44102,2.32166 2.03146,0.7877 4.5604,0.7877 3.64832,0 6.21873,-1.65832 2.57041,-1.65833 3.81415,-5.51394 l -5.18227,0 q -0.29021,0.995 -1.57541,1.90708 -1.2852,0.87062 -3.06791,0.87062 -2.48749,0 -3.81415,-1.2852 -1.32666,-1.28521 -1.45103,-4.14582 z"
             style="font-style:normal;font-variant:normal;font-weight:bold;font-stretch:normal;font-size:41.45817184px;font-family:'Helvetica Neue';-inkscape-font-specification:'Helvetica Neue Bold';letter-spacing:-0.35283548px;fill:#000000"
             id="path8400"
             inkscape:connector-curvature="0" />
          <path
             d="m 216.47095,-776.059 0,-4.85061 -5.88706,0 0,4.85061 5.88706,0 z m -5.88706,3.31665 0,21.43388 5.88706,0 0,-21.43388 -5.88706,0 z"
             style="font-style:normal;font-variant:normal;font-weight:bold;font-stretch:normal;font-size:41.45817184px;font-family:'Helvetica Neue';-inkscape-font-specification:'Helvetica Neue Bold';letter-spacing:-0.35283548px;fill:#000000"
             id="path8402"
             inkscape:connector-curvature="0" />
          <path
             d="m 220.75365,-772.74235 0,21.43388 5.88706,0 0,-11.23517 q 0,-3.27519 1.07792,-4.68477 1.07791,-1.45104 3.48248,-1.45104 2.11437,0 2.94353,1.32667 0.82917,1.2852 0.82917,3.93852 l 0,12.10579 5.88706,0 0,-13.1837 q 0,-1.98999 -0.37313,-3.60686 -0.33166,-1.65833 -1.20228,-2.7777 -0.87063,-1.16083 -2.40458,-1.7827 -1.49249,-0.66333 -3.85561,-0.66333 -1.86562,0 -3.64832,0.87062 -1.7827,0.82916 -2.90207,2.69478 l -0.12437,0 0,-2.98499 -5.59686,0 z"
             style="font-style:normal;font-variant:normal;font-weight:bold;font-stretch:normal;font-size:41.45817184px;font-family:'Helvetica Neue';-inkscape-font-specification:'Helvetica Neue Bold';letter-spacing:-0.35283548px;fill:#000000"
             id="path8404"
             inkscape:connector-curvature="0" />
        </g>
      </g>
    </g>
    <g
       id="g4799"
       transform="matrix(1.25,0,0,-1.25,-29.127432,1061.8893)">
      <g
         id="g4801"
         clip-path="url(#clipPath4803)" />
    </g>
    <g
       id="g4807"
       transform="matrix(1.25,0,0,-1.25,-29.127432,1061.8893)">
      <g
         id="g4809"
         clip-path="url(#clipPath4811)" />
    </g>
    <g
       id="g4827"
       transform="matrix(1.25,0,0,-1.25,-29.127432,1061.8893)">
      <g
         id="g4829"
         clip-path="url(#clipPath4831)" />
    </g>
    <path
       style="opacity:0;fill:none;stroke:#000000;stroke-width:0.10000001;stroke-linecap:butt;stroke-linejoin:miter;stroke-miterlimit:4;stroke-dasharray:none;stroke-opacity:1"
       d="m 505.09624,104.52351 -19.73546,57.875"
       id="path6506"
       inkscape:connector-curvature="0" />
    <path
       inkscape:connector-curvature="0"
       id="path7308"
       d="m 515.8041,104.52351 -19.73546,57.875"
       style="opacity:0;fill:none;stroke:#000000;stroke-width:0.10000001;stroke-linecap:butt;stroke-linejoin:miter;stroke-miterlimit:4;stroke-dasharray:none;stroke-opacity:1" />
    <path
       style="opacity:0;fill:none;stroke:#000000;stroke-width:0.10000001;stroke-linecap:butt;stroke-linejoin:miter;stroke-miterlimit:4;stroke-dasharray:none;stroke-opacity:1"
       d="m 544.09534,104.52351 -19.73546,57.875"
       id="path7310"
       inkscape:connector-curvature="0" />
    <path
       inkscape:connector-curvature="0"
       id="path7314"
       d="m 635.26864,104.52351 -19.73546,57.875"
       style="opacity:0;fill:none;stroke:#000000;stroke-width:0.10000001;stroke-linecap:butt;stroke-linejoin:miter;stroke-miterlimit:4;stroke-dasharray:none;stroke-opacity:1" />
    <path
       style="opacity:0;fill:none;stroke:#000000;stroke-width:0.10000001;stroke-linecap:butt;stroke-linejoin:miter;stroke-miterlimit:4;stroke-dasharray:none;stroke-opacity:1"
       d="m 485.36078,162.39851 130.17239,0"
       id="path7316"
       inkscape:connector-curvature="0" />
    <path
       inkscape:connector-curvature="0"
       id="path7369"
       style="fill:#ff5c5c;fill-opacity:1;fill-rule:evenodd;stroke:#a30000;stroke-width:1.25000012;stroke-miterlimit:4;stroke-dasharray:none;stroke-opacity:1"
       d="m 497.10402,126.92976 38.9991,0 -4.40832,13.0625 -38.9991,0"
       sodipodi:nodetypes="cccc" />
    <path
       sodipodi:nodetypes="cccc"
       d="m 505.09624,104.52351 130.65097,0 -4.40832,13.0625 -130.65097,0"
       style="fill:#ff5c5c;fill-opacity:1;fill-rule:evenodd;stroke:#a30000;stroke-width:1.25000012;stroke-miterlimit:4;stroke-dasharray:none;stroke-opacity:1"
       id="path7371"
       inkscape:connector-curvature="0" />
    <g
       transform="matrix(1.25,0,0,-1.25,-29.127432,1105.8893)"
       id="g8234"
       clip-path="url(#clipPath4783)">
      <g
         id="g8244">
        <g
           id="g8246"
           clip-path="url(#clipPath4803)" />
      </g>
      <g
         id="g8248">
        <g
           id="g8250"
           clip-path="url(#clipPath4811)" />
      </g>
      <g
         id="g8260">
        <g
           id="g8262"
           clip-path="url(#clipPath4831)" />
      </g>
    </g>
    <text
       xml:space="preserve"
       style="font-style:normal;font-weight:normal;font-size:25.90212822px;line-height:100%;font-family:sans-serif;letter-spacing:0px;word-spacing:0px;fill:#000000;fill-opacity:1;stroke:none;stroke-width:1px;stroke-linecap:butt;stroke-linejoin:miter;stroke-opacity:1"
       x="559.87048"
       y="171.94339"
       id="text4459"
       sodipodi:linespacing="100%"><tspan
         sodipodi:role="line"
         id="tspan4461"
         x="559.87048"
         y="171.94339"
         style="font-size:6.47553205px;line-height:100%;text-align:center;text-anchor:middle">Förderer der Energie- und Informationstechnik</tspan><tspan
         sodipodi:role="line"
         x="559.87048"
         y="178.41891"
         style="font-size:6.47553205px;line-height:100%;text-align:center;text-anchor:middle"
         id="tspan4463">für zukünftige Netze Aachen e.V.</tspan></text>
  </g>
</svg>
